<svg width="222" height="196" viewBox="0 0 222 196" fill="none" xmlns="http://www.w3.org/2000/svg">
    <g clip-path="url(#clip0)">
        <path
            d="M86.139 5.04719L87.0119 3.69808C86.753 2.98296 86.454 2.28302 86.1163 1.60158L85.5518 2.0575L85.9988 1.36676C85.5728 0.528282 85.2377 0 85.2377 0C85.2377 0 83.487 2.75888 82.9021 5.6799L84.0222 7.41112L82.7821 6.40948C82.738 6.74975 82.7153 7.09246 82.7141 7.43558C82.7141 10.895 83.8439 13.6995 85.2377 13.6995C86.6314 13.6995 87.7612 10.895 87.7612 7.43558C87.7351 6.33493 87.5404 5.2448 87.1839 4.20315L86.139 5.04719Z"
            fill="#E6E6E6" />
        <path
            d="M92.3176 8.04641L93.8889 7.70972C94.2115 7.021 94.495 6.31464 94.738 5.59399L94.0165 5.51723L94.8209 5.34484C95.1126 4.45076 95.2492 3.84021 95.2492 3.84021C95.2492 3.84021 92.0605 4.55307 89.5814 6.20496L89.1494 8.22122L88.9807 6.63606C88.7089 6.84544 88.4505 7.0717 88.2071 7.31352C85.7609 9.75973 84.5768 12.5417 85.5623 13.5272C86.5478 14.5127 89.3297 13.3286 91.7759 10.8824C92.5357 10.0857 93.1689 9.17714 93.6534 8.18851L92.3176 8.04641Z"
            fill="#E6E6E6" />
        <path
            d="M92.8915 21.4327C89.248 21.6658 85.2781 21.4192 81.0547 21.4327V11.7631C84.7762 12.3424 88.7448 12.2829 92.8915 11.7631V21.4327Z"
            fill="#E6E6E6" />
        <path
            d="M118.958 28.9728L119.527 28.0929C119.358 27.6266 119.163 27.1701 118.943 26.7257L118.575 27.0231L118.866 26.5726C118.589 26.0258 118.37 25.6813 118.37 25.6813C117.669 26.8272 117.155 28.0776 116.847 29.3854L117.577 30.5144L116.769 29.8612C116.74 30.0831 116.725 30.3066 116.724 30.5303C116.724 32.7864 117.461 34.6153 118.37 34.6153C119.279 34.6153 120.016 32.7864 120.016 30.5303C119.999 29.8126 119.872 29.1016 119.639 28.4223L118.958 28.9728Z"
            fill="#E6E6E6" />
        <path
            d="M122.987 30.9286L124.012 30.709C124.222 30.2599 124.407 29.7992 124.566 29.3293L124.095 29.2792L124.62 29.1668C124.81 28.5837 124.899 28.1855 124.899 28.1855C123.593 28.4999 122.345 29.0205 121.203 29.7277L120.921 31.0426L120.811 30.0088C120.634 30.1454 120.465 30.2929 120.307 30.4506C118.711 32.0459 117.939 33.8601 118.582 34.5028C119.225 35.1456 121.039 34.3733 122.634 32.7781C123.13 32.2585 123.542 31.666 123.858 31.0213L122.987 30.9286Z"
            fill="#E6E6E6" />
        <path
            d="M123.361 39.6584C120.985 39.8104 118.396 39.6495 115.642 39.6584V33.3524C118.203 33.7111 120.801 33.7111 123.361 33.3524V39.6584Z"
            fill="#E6E6E6" />
        <path
            d="M121.894 58.3468C119.796 58.481 117.51 58.339 115.078 58.3468V52.7786C117.339 53.0953 119.633 53.0953 121.894 52.7786V58.3468Z"
            fill="#E6E6E6" />
        <path d="M133.866 20.7527H42.1453V23.3148H133.866V20.7527Z" fill="#E6E6E6" />
        <path d="M133.866 38.9434H42.1453V41.5054H133.866V38.9434Z" fill="#E6E6E6" />
        <path d="M133.866 57.134H42.1453V59.6961H133.866V57.134Z" fill="#E6E6E6" />
        <path
            d="M118.494 54.8282C121.324 54.8282 123.618 52.5341 123.618 49.7041C123.618 46.8741 121.324 44.58 118.494 44.58C115.664 44.58 113.37 46.8741 113.37 49.7041C113.37 52.5341 115.664 54.8282 118.494 54.8282Z"
            fill="#E6E6E6" />
        <path
            d="M118.494 53.8033C120.758 53.8033 122.593 51.968 122.593 49.704C122.593 47.4401 120.758 45.6047 118.494 45.6047C116.23 45.6047 114.395 47.4401 114.395 49.704C114.395 51.968 116.23 53.8033 118.494 53.8033Z"
            fill="white" />
        <path
            d="M118.494 50.7289C119.06 50.7289 119.519 50.27 119.519 49.704C119.519 49.138 119.06 48.6792 118.494 48.6792C117.928 48.6792 117.469 49.138 117.469 49.704C117.469 50.27 117.928 50.7289 118.494 50.7289Z"
            fill="#E6E6E6" />
        <path d="M122.081 49.9603V49.4479H117.982V49.9603H122.081Z" fill="#E6E6E6" />
        <path d="M118.238 50.2164H118.75V46.1171H118.238V50.2164Z" fill="#E6E6E6" />
        <path d="M88.8659 26.4448H85.4756V39.8651H88.8659V26.4448Z" fill="#E6E6E6" />
        <path d="M88.8659 28.5637H85.4756V30.1176H88.8659V28.5637Z" fill="#CCCCCC" />
        <path d="M88.8659 35.3445H85.4756V36.8984H88.8659V35.3445Z" fill="#CCCCCC" />
        <path d="M83.6391 26.4448H80.2488V39.8651H83.6391V26.4448Z" fill="#E6E6E6" />
        <path d="M83.6391 28.5637H80.2488V30.1176H83.6391V28.5637Z" fill="#CCCCCC" />
        <path d="M83.6391 35.3445H80.2488V36.8984H83.6391V35.3445Z" fill="#CCCCCC" />
        <path d="M91.7871 26.3893L88.7488 27.8936L94.7032 39.9206L97.7415 38.4163L91.7871 26.3893Z" fill="#E6E6E6" />
        <path d="M92.7273 28.2882L89.689 29.7925L90.3784 31.1851L93.4168 29.6808L92.7273 28.2882Z" fill="#CCCCCC" />
        <path d="M95.7359 34.3651L92.6975 35.8694L93.387 37.262L96.4253 35.7577L95.7359 34.3651Z" fill="#CCCCCC" />
        <path d="M58.634 44.6354H55.2437V58.0557H58.634V44.6354Z" fill="#E6E6E6" />
        <path d="M58.634 46.7544H55.2437V48.3083H58.634V46.7544Z" fill="#CCCCCC" />
        <path d="M58.634 53.5352H55.2437V55.0891H58.634V53.5352Z" fill="#CCCCCC" />
        <path d="M53.4072 44.6354H50.0168V58.0557H53.4072V44.6354Z" fill="#E6E6E6" />
        <path d="M53.4072 46.7544H50.0168V48.3083H53.4072V46.7544Z" fill="#CCCCCC" />
        <path d="M53.4072 53.5352H50.0168V55.0891H53.4072V53.5352Z" fill="#CCCCCC" />
        <path d="M61.555 44.5799L58.5166 46.0842L64.471 58.1112L67.5094 56.607L61.555 44.5799Z" fill="#E6E6E6" />
        <path d="M62.4954 46.4789L59.457 47.9832L60.1465 49.3758L63.1848 47.8715L62.4954 46.4789Z" fill="#CCCCCC" />
        <path d="M65.5037 52.5558L62.4653 54.0601L63.1548 55.4527L66.1932 53.9484L65.5037 52.5558Z" fill="#CCCCCC" />
        <path d="M90.403 44.6354H87.0127V58.0557H90.403V44.6354Z" fill="#E6E6E6" />
        <path d="M90.403 46.7544H87.0127V48.3083H90.403V46.7544Z" fill="#CCCCCC" />
        <path d="M90.403 53.5352H87.0127V55.0891H90.403V53.5352Z" fill="#CCCCCC" />
        <path d="M85.1762 44.6354H81.7859V58.0557H85.1762V44.6354Z" fill="#E6E6E6" />
        <path d="M85.1762 46.7544H81.7859V48.3083H85.1762V46.7544Z" fill="#CCCCCC" />
        <path d="M85.1762 53.5352H81.7859V55.0891H85.1762V53.5352Z" fill="#CCCCCC" />
        <path d="M93.3243 44.5799L90.2859 46.0842L96.2403 58.1112L99.2786 56.607L93.3243 44.5799Z" fill="#E6E6E6" />
        <path d="M94.2644 46.4789L91.2261 47.9832L91.9155 49.3758L94.9539 47.8715L94.2644 46.4789Z" fill="#CCCCCC" />
        <path d="M97.273 52.5558L94.2346 54.0601L94.9241 55.4527L97.9624 53.9484L97.273 52.5558Z" fill="#CCCCCC" />
        <path d="M126.692 8.21387H113.218V21.6888H126.692V8.21387Z" fill="#E6E6E6" />
        <path d="M123.997 10.9088H115.913V18.9938H123.997V10.9088Z" fill="#CCCCCC" />
        <path d="M118.253 13.6227L119.967 16.5919L121.681 19.5611H118.253H114.824L116.539 16.5919L118.253 13.6227Z"
            fill="#E6E6E6" />
        <path d="M121.232 14.1901L122.946 17.1593L124.66 20.1284H121.232H117.803L119.517 17.1593L121.232 14.1901Z"
            fill="#E6E6E6" />
        <path
            d="M122.437 13.3201C122.986 13.3201 123.43 12.8756 123.43 12.3272C123.43 11.7789 122.986 11.3344 122.437 11.3344C121.889 11.3344 121.444 11.7789 121.444 12.3272C121.444 12.8756 121.889 13.3201 122.437 13.3201Z"
            fill="#E6E6E6" />
        <path d="M58.5424 8.21387H45.0676V21.6888H58.5424V8.21387Z" fill="#E6E6E6" />
        <path d="M55.8475 10.9088H47.7627V18.9938H55.8475V10.9088Z" fill="#CCCCCC" />
        <path d="M50.1029 13.6227L51.8171 16.5919L53.5315 19.5611H50.1029H46.6743L48.3885 16.5919L50.1029 13.6227Z"
            fill="#E6E6E6" />
        <path d="M53.0817 14.1901L54.7958 17.1593L56.51 20.1284H53.0817H49.6531L51.3672 17.1593L53.0817 14.1901Z"
            fill="#E6E6E6" />
        <path
            d="M54.2873 13.3201C54.8357 13.3201 55.2802 12.8756 55.2802 12.3272C55.2802 11.7789 54.8357 11.3344 54.2873 11.3344C53.739 11.3344 53.2944 11.7789 53.2944 12.3272C53.2944 12.8756 53.739 13.3201 54.2873 13.3201Z"
            fill="#E6E6E6" />
        <path
            d="M17.9888 100.1L18.8617 98.7507C18.6029 98.0356 18.3039 97.3356 17.9662 96.6542L17.4017 97.1101L17.8486 96.4194C17.4227 95.5809 17.0875 95.0526 17.0875 95.0526C17.0875 95.0526 15.3368 97.8115 14.7519 100.733L15.8721 102.464L14.632 101.462C14.5878 101.802 14.5651 102.145 14.564 102.488C14.564 105.948 15.6938 108.752 17.0875 108.752C18.4813 108.752 19.6111 105.948 19.6111 102.488C19.585 101.388 19.3903 100.297 19.0338 99.2558L17.9888 100.1Z"
            fill="#24C156" />
        <path
            d="M24.1677 103.099L25.7389 102.762C26.0615 102.073 26.3451 101.367 26.5881 100.646L25.8666 100.57L26.671 100.397C26.9627 99.5033 27.0993 98.8927 27.0993 98.8927C27.0993 98.8927 23.9106 99.6056 21.4315 101.257L20.9995 103.274L20.8308 101.689C20.559 101.898 20.3006 102.124 20.0572 102.366C17.611 104.812 16.4269 107.594 17.4124 108.58C18.3979 109.565 21.1798 108.381 23.626 105.935C24.3858 105.138 25.019 104.23 25.5035 103.241L24.1677 103.099Z"
            fill="#24C156" />
        <path
            d="M24.7416 116.485C21.0981 116.718 17.1282 116.472 12.9048 116.485V106.816C16.6263 107.395 20.5949 107.336 24.7416 106.816V116.485Z"
            fill="#3F3D56" />
        <path d="M175.243 119.52H126.052V183.316H175.243V119.52Z" fill="#E6E6E6" />
        <path d="M25.8765 122.851H23.3145V183.316H25.8765V122.851Z" fill="#E6E6E6" />
        <path d="M175.243 115.165H0V120.289H175.243V115.165Z" fill="#E6E6E6" />
        <path d="M27.1575 120.289H22.0334V125.413H27.1575V120.289Z" fill="#E6E6E6" />
        <path d="M154.523 123.235L154.234 124.388H147.06L146.628 123.235H128.358V135.021H172.937V123.235H154.523Z"
            fill="#3F3D56" />
        <path d="M154.523 138.095L154.234 139.248H147.06L146.628 138.095H128.358V149.881H172.937V138.095H154.523Z"
            fill="#3F3D56" />
        <path d="M154.523 152.955L154.234 154.108H147.06L146.628 152.955H128.358V164.741H172.937V152.955H154.523Z"
            fill="#3F3D56" />
        <path d="M154.523 167.815L154.234 168.968H147.06L146.628 167.815H128.358V179.601H172.937V167.815H154.523Z"
            fill="#3F3D56" />
        <path d="M95.0513 114.396H79.9353L80.4476 107.735H94.5388L95.0513 114.396Z" fill="#E6E6E6" />
        <path d="M96.0761 113.628H79.1667V115.165H96.0761V113.628Z" fill="#E6E6E6" />
        <path
            d="M116.444 64.8202H58.6705C58.2628 64.8202 57.8718 64.9821 57.5835 65.2704C57.2953 65.5587 57.1333 65.9497 57.1333 66.3574V101.586H117.982V66.3574C117.982 65.9497 117.82 65.5587 117.531 65.2704C117.243 64.9821 116.852 64.8202 116.444 64.8202Z"
            fill="#3F3D56" />
        <path
            d="M57.1333 101.586V107.35C57.1333 107.758 57.2953 108.149 57.5835 108.437C57.8718 108.726 58.2628 108.888 58.6705 108.888H116.444C116.852 108.888 117.243 108.726 117.531 108.437C117.82 108.149 117.982 107.758 117.982 107.35V101.586H57.1333Z"
            fill="#E6E6E6" />
        <path d="M115.035 68.0228H60.2078V98.7676H115.035V68.0228Z" fill="white" />
        <path
            d="M87.6214 106.71C88.4704 106.71 89.1587 106.022 89.1587 105.173C89.1587 104.324 88.4704 103.635 87.6214 103.635C86.7725 103.635 86.0842 104.324 86.0842 105.173C86.0842 106.022 86.7725 106.71 87.6214 106.71Z"
            fill="#3F3D56" />
        <path
            d="M217.645 182.931C212.045 183.289 205.944 182.91 199.454 182.931V168.071C205.173 168.962 211.272 168.87 217.645 168.071V182.931Z"
            fill="#3F3D56" />
        <path d="M209.19 169.406H207.653L208.165 139.376H208.677L209.19 169.406Z" fill="#3F3D56" />
        <path d="M216.107 169.609H214.57L215.083 139.579H215.595L216.107 169.609Z" fill="#3F3D56" />
        <path d="M203.041 169.609H201.504L202.016 139.579H202.528L203.041 169.609Z" fill="#3F3D56" />
        <path
            d="M210.471 120.161L212.952 116.326C212.216 114.293 211.366 112.303 210.406 110.366L208.802 111.662L210.072 109.698C208.862 107.315 207.909 105.813 207.909 105.813C207.909 105.813 202.932 113.656 201.269 121.959L204.454 126.881L200.929 124.033C200.803 125.001 200.738 125.975 200.735 126.95C200.735 136.784 203.947 144.757 207.909 144.757C211.871 144.757 215.082 136.784 215.082 126.95C215.082 123.902 214.393 120.712 213.441 117.761L210.471 120.161Z"
            fill="#E6E6E6" />
        <path
            d="M217.388 120.673L219.87 116.838C219.134 114.805 218.284 112.816 217.324 110.878L215.719 112.175L216.99 110.211C215.779 107.827 214.826 106.326 214.826 106.326C214.826 106.326 209.85 114.168 208.187 122.472L211.371 127.393L207.846 124.546C207.72 125.513 207.656 126.487 207.653 127.463C207.653 137.297 210.864 145.269 214.826 145.269C218.788 145.269 222 137.297 222 127.463C222 124.414 221.31 121.224 220.359 118.274L217.388 120.673Z"
            fill="#24C156" />
        <path
            d="M204.322 120.673L206.804 116.838C206.068 114.805 205.218 112.816 204.258 110.878L202.653 112.175L203.924 110.211C202.713 107.827 201.76 106.326 201.76 106.326C201.76 106.326 196.783 114.168 195.121 122.472L198.305 127.393L194.78 124.546C194.654 125.513 194.59 126.487 194.586 127.463C194.586 137.297 197.798 145.269 201.76 145.269C205.722 145.269 208.934 137.297 208.934 127.463C208.934 124.414 208.244 121.224 207.293 118.274L204.322 120.673Z"
            fill="#24C156" />
        <path d="M92.7707 76.7013H77.9875V77.5499H92.7707V76.7013Z" fill="#3F3D56" />
        <path d="M100.816 79.7968H77.9875V80.6454H100.816V79.7968Z" fill="#24C156" />
        <path d="M96.5922 82.7133H77.9875V83.5619H96.5922V82.7133Z" fill="#24C156" />
        <path d="M88.8486 85.6187H77.9875V86.4673H88.8486V85.6187Z" fill="#3F3D56" />
        <path d="M94.3798 88.5242H77.9875V89.3728H94.3798V88.5242Z" fill="#3F3D56" />
        <path d="M73.0597 76.3995H71.2495V78.2097H73.0597V76.3995Z" fill="#3F3D56" />
        <path d="M73.0597 79.316H71.2495V81.1262H73.0597V79.316Z" fill="#24C156" />
        <path d="M73.0597 82.2324H71.2495V84.0426H73.0597V82.2324Z" fill="#24C156" />
        <path d="M73.0597 85.1489H71.2495V86.9591H73.0597V85.1489Z" fill="#3F3D56" />
        <path d="M73.0597 88.0653H71.2495V89.8755H73.0597V88.0653Z" fill="#3F3D56" />
        <path
            d="M112.495 75.0946H104.737C104.208 72.0341 104.208 68.9055 104.737 65.845H112.495C111.621 68.8663 111.621 72.0734 112.495 75.0946Z"
            fill="#24C156" />
        <path
            d="M56.0477 93.6335L52.8562 92.8555C51.6383 92.857 50.4353 92.5878 49.3342 92.0673C48.2332 91.5468 47.2616 90.788 46.4899 89.8459C45.7181 88.9038 45.1654 87.8019 44.8718 86.6199C44.5781 85.4379 44.5509 84.2055 44.7921 83.0117V83.0117C44.7886 80.1634 45.9166 77.4303 47.9281 75.4137C49.9397 73.3971 52.6699 72.2621 55.5182 72.2586H55.5182C58.3665 72.255 61.0996 73.383 63.1162 75.3946C65.1327 77.4061 66.2677 80.1364 66.2712 82.9847V82.9847C68.0808 89.282 62.4133 95.1852 56.0477 93.6335Z"
            fill="#2F2E41" />
        <path
            d="M59.534 94.7563C63.8922 94.7563 67.4251 91.2233 67.4251 86.865C67.4251 82.5068 63.8922 78.9738 59.534 78.9738C55.1758 78.9738 51.6428 82.5068 51.6428 86.865C51.6428 91.2233 55.1758 94.7563 59.534 94.7563Z"
            fill="#FFB8B8" />
        <path
            d="M54.3876 90.9822C54.3876 90.9822 51.9859 99.2165 50.6135 99.9027C49.2412 100.589 61.5925 101.618 61.5925 101.618C61.5925 101.618 61.2494 93.727 61.9356 93.0408C62.6218 92.3546 54.3876 90.9822 54.3876 90.9822Z"
            fill="#FFB8B8" />
        <path
            d="M66.739 141.761C66.739 141.761 82.1782 140.388 84.2368 145.535C86.2954 150.681 82.8644 181.217 82.8644 181.217H76.3456V156.171C76.3456 156.171 48.5505 148.27 48.5505 145.525C48.5505 142.78 66.739 141.761 66.739 141.761Z"
            fill="#2F2E41" />
        <path
            d="M81.835 179.845L85.266 181.217C85.266 181.217 89.3831 180.874 87.6676 183.962C87.1766 184.858 86.4897 185.632 85.6581 186.226C84.8264 186.82 83.8715 187.219 82.8643 187.393C82.8643 187.393 76.3455 189.795 76.0024 187.393C75.6593 184.991 77.7179 180.188 77.7179 180.188L81.835 179.845Z"
            fill="#2F2E41" />
        <path
            d="M58.1616 141.761C58.1616 141.761 73.6009 140.388 75.6594 145.535C77.718 150.681 74.2871 181.217 74.2871 181.217H67.7683V156.171C67.7683 156.171 48.0381 151.601 48.0381 148.856C48.0381 147.566 46.6937 141.013 49.0629 139.633C51.737 138.074 58.1616 141.761 58.1616 141.761Z"
            fill="#2F2E41" />
        <path
            d="M73.2577 179.845L76.6886 181.217C76.6886 181.217 80.8057 180.874 79.0903 183.962C78.5992 184.858 77.9123 185.632 77.0807 186.226C76.249 186.82 75.2941 187.219 74.2869 187.393C74.2869 187.393 67.7681 189.795 67.425 187.393C67.082 184.991 69.1405 180.188 69.1405 180.188L73.2577 179.845Z"
            fill="#2F2E41" />
        <path
            d="M50.9567 98.8734L61.2674 99.9942C62.8587 100.167 64.3546 100.839 65.5416 101.912C66.7286 102.986 67.5458 104.408 67.8767 105.974L71.8854 124.949C71.8854 124.949 73.2578 143.819 70.513 144.849C67.7683 145.878 63.9943 140.731 58.8479 141.418C53.7014 142.104 47.0111 143.648 47.0111 143.648C47.0111 143.648 45.9487 109.87 45.8103 107.108C45.5336 101.585 50.9567 98.8734 50.9567 98.8734Z"
            fill="#575A89" />
        <path
            d="M75.3801 142.741L79.613 145.234C79.613 145.234 87.207 144.144 86.97 146.814C86.7329 149.483 78.4435 148.967 78.4435 148.967L73.3423 145.824L75.3801 142.741Z"
            fill="#FFB8B8" />
        <path
            d="M44.2172 80.4469C47.0324 80.4469 49.3146 78.1647 49.3146 75.3495C49.3146 72.5343 47.0324 70.2521 44.2172 70.2521C41.402 70.2521 39.1199 72.5343 39.1199 75.3495C39.1199 78.1647 41.402 80.4469 44.2172 80.4469Z"
            fill="#2F2E41" />
        <path
            d="M48.9205 72.6092C48.9199 71.8551 48.752 71.1106 48.4288 70.4294C48.1056 69.7481 47.6353 69.1471 47.0517 68.6697C46.4681 68.1922 45.7858 67.8503 45.054 67.6684C44.3223 67.4866 43.5593 67.4695 42.8201 67.6183C43.4723 67.3101 44.1825 67.1439 44.9037 67.1307C45.625 67.1175 46.3408 67.2577 47.0038 67.5418C47.6669 67.826 48.262 68.2477 48.7499 68.779C49.2378 69.3104 49.6073 69.9393 49.8339 70.6242C50.0605 71.309 50.1392 72.0342 50.0646 72.7517C49.99 73.4692 49.7639 74.1627 49.4013 74.7863C49.0387 75.4099 48.5478 75.9493 47.961 76.369C47.3743 76.7887 46.7052 77.079 45.9979 77.2207C46.8725 76.8087 47.6118 76.1563 48.1293 75.3396C48.6468 74.523 48.9213 73.576 48.9205 72.6092V72.6092Z"
            fill="#2F2E41" />
        <path
            d="M53.2935 75.5002L60.1655 74.2349L65.4504 77.5472C66.7497 78.3616 67.7882 79.5314 68.4428 80.9182C69.0973 82.3049 69.3405 83.8502 69.1433 85.3709L63.8503 84.0293L62.6651 81.0573L61.2535 83.3711L53.873 92.8692L49.7292 90.2304L46.0349 84.4411L53.2935 75.5002Z"
            fill="#2F2E41" />
        <path
            d="M58.9526 101.792L62.3836 100.077C62.3836 100.077 69.5886 101.106 70.9609 105.909C72.3333 110.713 78.509 143.993 78.509 143.993L72.6764 146.738L64.4421 126.495L58.9526 101.792Z"
            fill="#575A89" />
        <path opacity="0.2"
            d="M61.8733 115.293L65.3072 128.622L71.3964 143.591L71.1853 144.11L63.9228 128.872L61.8733 115.293Z"
            fill="black" />
        <path d="M36.2517 188.799L35.0408 188.382L46.7717 153.537L48.4675 154.121L36.2517 188.799Z" fill="#3F3D56" />
        <path d="M81.0891 188.799L82.3003 188.382L70.5691 153.537L68.8735 154.121L81.0891 188.799Z" fill="#3F3D56" />
        <path d="M56.301 195.996L57.5819 196L57.9799 155.267L56.1865 155.261L56.301 195.996Z" fill="#3F3D56" />
        <path
            d="M33.2869 133.063L36.8007 147.265C37.2928 149.254 38.3173 151.071 39.7643 152.521C41.2112 153.972 43.026 155.001 45.0136 155.498H45.0136C54.8132 157.948 65.073 157.881 74.8402 155.305L80.0864 153.922C83.1347 153.118 85.4271 150.5 85.644 147.355C85.7319 146.243 85.5305 145.127 85.0595 144.116C85.039 144.072 85.0184 144.029 84.9977 143.987C84.3135 142.581 83.258 141.39 81.9454 140.541C80.6328 139.692 79.1131 139.218 77.5507 139.171L71.9931 138.992L51.7531 130.025C51.7531 130.025 44.792 126.489 39.0694 126.093C35.2902 125.832 32.377 129.385 33.2869 133.063Z"
            fill="#24C156" />
        <path d="M156.668 88.3912H136.684V115.549H156.668V88.3912Z" fill="#E6E6E6" />
        <path d="M154.362 91.5248H138.99V112.415H154.362V91.5248Z" fill="white" />
        <path d="M152.488 96.9917H145.04V97.8403H152.488V96.9917Z" fill="#3F3D56" />
        <path d="M142.675 96.5219H140.865V98.3321H142.675V96.5219Z" fill="#3F3D56" />
        <path d="M152.488 100.579H145.04V101.427H152.488V100.579Z" fill="#3F3D56" />
        <path d="M142.675 100.109H140.865V101.919H142.675V100.109Z" fill="#3F3D56" />
        <path d="M152.488 104.165H145.04V105.014H152.488V104.165Z" fill="#3F3D56" />
        <path d="M142.675 103.696H140.865V105.506H142.675V103.696Z" fill="#3F3D56" />
        <path
            d="M147.445 89.9284C147.445 89.5039 147.101 89.1598 146.676 89.1598C146.252 89.1598 145.908 89.5039 145.908 89.9284C145.908 90.3529 146.252 90.697 146.676 90.697C147.101 90.697 147.445 90.3529 147.445 89.9284Z"
            fill="#3F3D56" />
    </g>
    <defs>
        <clipPath id="clip0">
            <rect width="222" height="196" fill="white" />
        </clipPath>
    </defs>
</svg>