<svg width="303" height="262" viewBox="0 0 303 262" fill="none" xmlns="http://www.w3.org/2000/svg">
  <g opacity="0.8">
    <path opacity="0.8"
      d="M155.829 88.5901C185.006 88.5901 208.659 70.2796 208.659 47.6924C208.659 25.1052 185.006 6.79468 155.829 6.79468C126.651 6.79468 102.998 25.1052 102.998 47.6924C102.998 70.2796 126.651 88.5901 155.829 88.5901Z"
      fill="url(#paint0_linear)" />
  </g>
  <path
    d="M155.829 87.6818C184.358 87.6818 207.486 69.7779 207.486 47.6924C207.486 25.6069 184.358 7.703 155.829 7.703C127.299 7.703 104.171 25.6069 104.171 47.6924C104.171 69.7779 127.299 87.6818 155.829 87.6818Z"
    fill="#00BF64" />
  <path opacity="0.1"
    d="M112.521 52.1369C112.521 30.0515 135.647 12.1475 164.176 12.1475C173.033 12.0988 181.802 13.9076 189.916 17.4571C180.837 11.3293 168.959 7.60571 155.958 7.60571C127.43 7.60571 104.301 25.5097 104.301 47.5951C104.301 62.4244 114.729 75.3685 130.221 82.2749C119.375 74.9432 112.521 64.1618 112.521 52.1369Z"
    fill="white" />
  <path opacity="0.2" d="M155.829 63.7653L213.096 162.884L270.363 262H155.829H41.2946L98.5616 162.884L155.829 63.7653Z"
    fill="#00BF64" />
  <g opacity="0.3">
    <path opacity="0.3"
      d="M169.417 204.099L173.864 190.91C175.394 186.317 175.406 181.354 173.899 176.754C172.393 172.153 169.447 168.158 165.496 165.357L165.532 165.336C163.782 164.105 161.864 163.133 159.836 162.452V162.452L159.775 162.43L159.706 162.409C157.738 161.743 155.686 161.357 153.61 161.262C152.876 161.224 152.14 161.224 151.406 161.262C150.132 161.329 148.866 161.504 147.622 161.785C147.262 161.864 146.901 161.954 146.573 162.052C146.244 162.149 145.876 162.254 145.534 162.365C144.848 162.592 144.174 162.848 143.514 163.14C143.182 163.285 142.854 163.436 142.533 163.598C141.562 164.077 140.628 164.626 139.737 165.242C139.438 165.447 139.146 165.66 138.857 165.876C135.291 168.586 132.622 172.303 131.195 176.546L124.205 197.326C123.105 200.585 122.774 204.054 123.238 207.462C123.31 207.985 123.4 208.504 123.505 209.02C123.61 209.535 123.739 210.043 123.866 210.548C123.963 210.883 124.064 211.218 124.176 211.55C124.342 212.044 124.537 212.538 124.721 213.021C124.854 213.341 124.995 213.662 125.143 213.98C125.435 214.61 125.759 215.227 126.109 215.829C126.459 216.431 126.831 217.018 127.249 217.588C127.552 218.013 127.873 218.431 128.205 218.835C128.652 219.376 129.121 219.916 129.619 220.396C131.774 222.566 134.352 224.271 137.194 225.402V225.402L137.317 225.453C137.469 225.182 137.638 224.921 137.822 224.671C138.904 223.189 140.787 222.148 142.58 222.537C142.709 222.566 142.839 222.605 142.969 222.645C143.878 222.966 144.773 223.539 145.649 223.82C145.968 223.963 146.314 224.035 146.664 224.031C147.013 224.026 147.358 223.946 147.673 223.795C149.426 222.861 148.777 219.916 150.281 218.626C150.351 218.566 150.424 218.511 150.501 218.46C150.48 218.434 150.46 218.406 150.443 218.377C151.605 217.656 153.213 218.136 154.552 218.601C155.994 219.109 157.877 219.451 158.88 218.273C159.558 217.465 159.508 216.236 160.153 215.389C160.904 214.416 162.318 214.308 163.541 214.481L163.602 214.499C165.947 215.465 168.508 213.861 168.327 211.334C168.114 207.963 169.175 204.788 169.417 204.099Z"
      fill="url(#paint1_linear)" />
  </g>
  <path
    d="M138.229 223.561C139.283 222.119 141.09 221.109 142.821 221.502C144.553 221.895 146.194 223.543 147.734 222.717C149.841 221.592 148.347 217.458 151.767 217.152C152.48 217.105 153.193 217.228 153.848 217.512C155.291 218.1 157.549 218.763 158.66 217.44C159.313 216.661 159.266 215.475 159.89 214.668C160.612 213.731 161.986 213.612 163.158 213.792L163.216 213.81C165.478 214.744 167.952 213.194 167.775 210.757C167.548 207.513 168.58 204.456 168.803 203.793L173.089 191.065C174.912 185.609 174.499 179.653 171.94 174.5C169.382 169.347 164.886 165.416 159.436 163.566V163.566C153.976 161.747 148.018 162.161 142.863 164.718C137.708 167.275 133.775 171.767 131.924 177.213L125.168 197.229C123.412 202.493 123.734 208.229 126.069 213.264C128.403 218.299 132.574 222.253 137.728 224.318C137.88 224.056 138.048 223.803 138.229 223.561V223.561Z"
    fill="white" />
  <path opacity="0.2"
    d="M146.216 177.559C147.512 177.559 148.564 176.508 148.564 175.212C148.564 173.916 147.512 172.866 146.216 172.866C144.919 172.866 143.867 173.916 143.867 175.212C143.867 176.508 144.919 177.559 146.216 177.559Z"
    fill="black" />
  <path opacity="0.2"
    d="M159.569 182.046C160.866 182.046 161.917 180.996 161.917 179.7C161.917 178.404 160.866 177.353 159.569 177.353C158.272 177.353 157.221 178.404 157.221 179.7C157.221 180.996 158.272 182.046 159.569 182.046Z"
    fill="black" />
  <path
    d="M152.132 187.123C152.752 185.282 152.258 183.454 151.029 183.04C149.8 182.627 148.301 183.785 147.681 185.626C147.06 187.468 147.554 189.296 148.783 189.709C150.012 190.122 151.512 188.965 152.132 187.123Z"
    fill="#E0E0E0" />
  <path
    d="M199.305 179.249C201.25 179.249 202.826 177.674 202.826 175.731C202.826 173.788 201.25 172.213 199.305 172.213C197.361 172.213 195.785 173.788 195.785 175.731C195.785 177.674 197.361 179.249 199.305 179.249Z"
    fill="white" />
  <path
    d="M210.459 171.957C211.431 171.957 212.219 171.17 212.219 170.198C212.219 169.227 211.431 168.439 210.459 168.439C209.487 168.439 208.698 169.227 208.698 170.198C208.698 171.17 209.487 171.957 210.459 171.957Z"
    fill="white" />
  <g opacity="0.5">
    <g opacity="0.3">
      <path opacity="0.3"
        d="M174.106 62.4388L178.554 49.2496C180.083 44.6564 180.095 39.6938 178.589 35.0932C177.082 30.4926 174.136 26.4974 170.185 23.6966L170.221 23.675C168.472 22.4442 166.553 21.4729 164.525 20.7913L164.464 20.7696L164.395 20.748C162.427 20.0828 160.375 19.6969 158.299 19.6018C157.565 19.5639 156.83 19.5639 156.095 19.6018C154.822 19.6684 153.556 19.8432 152.312 20.1244C151.951 20.2037 151.59 20.2938 151.262 20.3912C150.934 20.4885 150.566 20.593 150.223 20.7048C149.538 20.9319 148.863 21.1878 148.203 21.4798C147.871 21.6239 147.543 21.7753 147.222 21.9375C146.251 22.4165 145.317 22.9659 144.426 23.5812C144.127 23.7867 143.835 23.9994 143.546 24.2156C139.981 26.9252 137.312 30.6422 135.885 34.8852L128.894 55.6657C127.794 58.9247 127.463 62.3939 127.927 65.8019C127.999 66.3245 128.09 66.8436 128.194 67.359C128.299 67.8745 128.429 68.3827 128.555 68.8874C128.652 69.2226 128.753 69.5578 128.865 69.8895C129.031 70.3833 129.226 70.8771 129.41 71.3601C129.543 71.681 129.684 72.0018 129.832 72.319C130.124 72.9498 130.449 73.5661 130.799 74.1681C131.148 74.7701 131.52 75.3576 131.938 75.9272C132.241 76.3525 132.562 76.7706 132.894 77.1744C133.342 77.715 133.811 78.2377 134.308 78.7351C136.463 80.9057 139.041 82.61 141.883 83.7419V83.7419L142.006 83.7924C142.159 83.5219 142.327 83.2607 142.511 83.0102C143.593 81.5287 145.476 80.487 147.269 80.8763C147.399 80.9051 147.528 80.9448 147.658 80.9844C148.567 81.3052 149.462 81.8784 150.338 82.1595C150.657 82.3027 151.004 82.3746 151.353 82.3702C151.703 82.3659 152.047 82.2853 152.362 82.1343C154.115 81.2007 153.466 78.2557 154.97 76.9653C155.04 76.9058 155.114 76.8504 155.19 76.7995C155.169 76.7733 155.15 76.7456 155.132 76.7166C156.294 75.9956 157.903 76.4751 159.241 76.9401C160.684 77.4483 162.567 77.7907 163.569 76.612C164.248 75.8046 164.197 74.5754 164.843 73.7284C165.593 72.7551 167.007 72.647 168.23 72.82H168.291C170.636 73.786 173.197 72.182 173.017 69.6552C172.804 66.3029 173.864 63.1273 174.106 62.4388Z"
        fill="url(#paint2_linear)" />
    </g>
    <path opacity="0.5"
      d="M142.919 81.8999C143.972 80.4581 145.779 79.4488 147.51 79.8417C149.242 80.2346 150.883 81.8819 152.423 81.0564C154.53 79.9318 153.037 75.7973 156.456 75.491C157.169 75.4439 157.882 75.5675 158.538 75.8514C159.98 76.439 162.238 77.1022 163.349 75.7793C164.002 75.0007 163.955 73.8148 164.579 73.0074C165.301 72.0702 166.675 71.9512 167.848 72.1315L167.905 72.1495C170.167 73.0831 172.641 71.5331 172.465 69.0964C172.237 65.8523 173.269 62.7956 173.493 62.1323L177.778 49.4045C179.601 43.9482 179.188 37.9927 176.629 32.8397C174.071 27.6868 169.575 23.7554 164.125 21.905V21.905C158.665 20.0859 152.707 20.5002 147.552 23.0573C142.397 25.6144 138.464 30.1065 136.613 35.552L129.857 55.5683C128.101 60.8327 128.423 66.5684 130.758 71.6033C133.092 76.6382 137.263 80.5921 142.417 82.6569C142.569 82.395 142.737 82.1422 142.919 81.8999Z"
      fill="white" />
    <path opacity="0.2"
      d="M150.905 35.8981C152.202 35.8981 153.253 34.8475 153.253 33.5516C153.253 32.2556 152.202 31.205 150.905 31.205C149.608 31.205 148.557 32.2556 148.557 33.5516C148.557 34.8475 149.608 35.8981 150.905 35.8981Z"
      fill="black" />
    <path opacity="0.2"
      d="M164.258 40.3859C165.555 40.3859 166.607 39.3353 166.607 38.0393C166.607 36.7433 165.555 35.6927 164.258 35.6927C162.962 35.6927 161.91 36.7433 161.91 38.0393C161.91 39.3353 162.962 40.3859 164.258 40.3859Z"
      fill="black" />
  </g>
  <path opacity="0.1"
    d="M205.434 35.8405C206.105 38.4305 206.443 41.0952 206.44 43.7706C206.44 65.8559 183.315 83.7599 154.786 83.7599C131.437 83.7455 111.71 71.7566 105.329 55.3053C110.068 73.6058 130.939 87.3862 155.976 87.3862C184.505 87.3862 207.634 69.4821 207.634 47.3968C207.627 43.4414 206.881 39.5222 205.434 35.8405V35.8405Z"
    fill="black" />
  <g opacity="0.8">
    <path opacity="0.8"
      d="M155.829 93.031C214.833 93.031 262.665 80.5383 262.665 65.1278C262.665 49.7173 214.833 37.2247 155.829 37.2247C96.8244 37.2247 48.9922 49.7173 48.9922 65.1278C48.9922 80.5383 96.8244 93.031 155.829 93.031Z"
      fill="url(#paint3_linear)" />
  </g>
  <path
    d="M155.829 38.1475C98.7708 38.1475 52.5128 50.2265 52.5128 65.1315H259.144C259.144 50.2265 212.886 38.1475 155.829 38.1475Z"
    fill="white" />
  <path
    d="M155.829 92.1119C212.886 92.1119 259.144 80.0329 259.144 65.1315H52.5128C52.5128 80.0329 98.7708 92.1119 155.829 92.1119Z"
    fill="white" />
  <path opacity="0.05"
    d="M155.829 92.1119C212.886 92.1119 259.144 80.0329 259.144 65.1315H52.5128C52.5128 80.0329 98.7708 92.1119 155.829 92.1119Z"
    fill="black" />
  <path opacity="0.05"
    d="M198.927 58.088H112.73C109.3 58.088 106.519 60.867 106.519 64.2951V65.9605C106.519 69.3885 109.3 72.1676 112.73 72.1676H198.927C202.357 72.1676 205.138 69.3885 205.138 65.9605V64.2951C205.138 60.867 202.357 58.088 198.927 58.088Z"
    fill="black" />
  <path opacity="0.5"
    d="M48.296 20.8382C47.998 20.7082 47.7581 20.4735 47.6218 20.1785C47.4855 19.8835 47.4623 19.5487 47.5566 19.2378C47.5717 19.1897 47.5814 19.1402 47.5854 19.09V19.09C47.5946 18.9473 47.5575 18.8055 47.4795 18.6857C47.4015 18.5658 47.2868 18.4744 47.1526 18.425C47.0184 18.3755 46.8718 18.3707 46.7346 18.4113C46.5975 18.4519 46.4771 18.5357 46.3914 18.6502C46.3626 18.6906 46.3384 18.7341 46.3193 18.78C46.1899 19.0783 45.955 19.3186 45.6596 19.4549C45.3642 19.5912 45.0289 19.614 44.7177 19.5189C44.6696 19.5042 44.62 19.4945 44.5698 19.4901C44.4271 19.4809 44.2852 19.518 44.1653 19.5959C44.0453 19.6739 43.9538 19.7884 43.9044 19.9226C43.8549 20.0567 43.8501 20.2032 43.8907 20.3403C43.9313 20.4773 44.0152 20.5976 44.1298 20.6832V20.6832C44.1696 20.7139 44.2133 20.7394 44.2596 20.7589C44.5576 20.8889 44.7976 21.1236 44.9339 21.4186C45.0702 21.7136 45.0934 22.0484 44.9991 22.3593C44.9843 22.4062 44.9746 22.4546 44.9702 22.5035V22.5035C44.9601 22.6465 44.9967 22.7889 45.0743 22.9094C45.152 23.0299 45.2667 23.122 45.4011 23.1719C45.5356 23.2218 45.6826 23.2269 45.8201 23.1863C45.9577 23.1457 46.0784 23.0617 46.1642 22.9469C46.1938 22.9057 46.2181 22.8609 46.2363 22.8135C46.3689 22.5185 46.6051 22.2822 46.9002 22.1494C47.1953 22.0165 47.5289 21.9963 47.8379 22.0926C47.8861 22.1073 47.9356 22.117 47.9858 22.1214C48.1286 22.1306 48.2705 22.0935 48.3904 22.0156C48.5103 21.9376 48.6018 21.8231 48.6513 21.6889C48.7007 21.5548 48.7055 21.4083 48.6649 21.2712C48.6243 21.1342 48.5405 21.0139 48.4259 20.9283V20.9283C48.3869 20.8925 48.3432 20.8622 48.296 20.8382V20.8382Z"
    fill="#4D8AF0" />
  <path opacity="0.5"
    d="M231.9 131.139C231.605 131.006 231.369 130.77 231.236 130.475C231.103 130.18 231.083 129.847 231.178 129.538C231.193 129.49 231.203 129.441 231.207 129.391V129.391C231.216 129.248 231.179 129.106 231.101 128.986C231.023 128.866 230.908 128.775 230.774 128.725C230.64 128.676 230.493 128.671 230.356 128.712C230.219 128.752 230.099 128.836 230.013 128.951C229.984 128.991 229.96 129.035 229.941 129.081C229.811 129.379 229.577 129.619 229.281 129.755C228.986 129.892 228.65 129.914 228.339 129.819C228.291 129.805 228.242 129.795 228.191 129.791V129.791C228.049 129.781 227.907 129.819 227.787 129.896C227.667 129.974 227.575 130.089 227.526 130.223C227.476 130.357 227.472 130.504 227.512 130.641C227.553 130.778 227.637 130.898 227.751 130.984V130.984C227.791 131.014 227.835 131.04 227.881 131.059C228.176 131.193 228.412 131.429 228.545 131.723C228.678 132.018 228.698 132.351 228.603 132.66C228.588 132.707 228.578 132.755 228.574 132.804V132.804C228.564 132.947 228.6 133.089 228.678 133.21C228.756 133.33 228.87 133.422 229.005 133.472C229.139 133.522 229.286 133.527 229.424 133.487C229.561 133.446 229.682 133.362 229.768 133.247V133.247C229.797 133.206 229.822 133.161 229.84 133.114C229.972 132.819 230.209 132.583 230.504 132.45C230.799 132.317 231.132 132.297 231.441 132.393C231.49 132.408 231.539 132.418 231.589 132.422V132.422C231.732 132.431 231.874 132.394 231.994 132.316C232.114 132.238 232.205 132.124 232.255 131.989C232.304 131.855 232.309 131.709 232.268 131.572C232.228 131.435 232.144 131.314 232.029 131.229C231.99 131.193 231.947 131.163 231.9 131.139V131.139Z"
    fill="#4D8AF0" />
  <path opacity="0.5"
    d="M29.1782 182.324C28.8801 182.194 28.6402 181.959 28.5039 181.664C28.3676 181.369 28.3444 181.035 28.4387 180.724C28.4538 180.676 28.4635 180.626 28.4676 180.576V180.576C28.4768 180.433 28.4396 180.291 28.3616 180.172C28.2836 180.052 28.169 179.96 28.0347 179.911C27.9005 179.861 27.7539 179.857 27.6168 179.897C27.4796 179.938 27.3592 180.022 27.2736 180.136V180.136C27.2447 180.176 27.2205 180.22 27.2014 180.266C27.072 180.564 26.8372 180.804 26.5418 180.941C26.2463 181.077 25.911 181.1 25.5999 181.005C25.5517 180.99 25.5021 180.98 25.452 180.976V180.976C25.3092 180.967 25.1673 181.004 25.0474 181.082C24.9275 181.16 24.836 181.274 24.7865 181.408C24.737 181.543 24.7322 181.689 24.7729 181.826C24.8135 181.963 24.8973 182.083 25.0119 182.169V182.169C25.0517 182.2 25.0954 182.225 25.1418 182.245C25.4398 182.375 25.6797 182.609 25.816 182.904C25.9523 183.199 25.9755 183.534 25.8812 183.845C25.8664 183.892 25.8568 183.94 25.8524 183.989V183.989C25.8423 184.132 25.8788 184.275 25.9565 184.395C26.0342 184.516 26.1488 184.608 26.2832 184.658C26.4177 184.708 26.5647 184.713 26.7023 184.672C26.8398 184.632 26.9605 184.548 27.0463 184.433C27.076 184.392 27.1002 184.347 27.1185 184.299C27.2511 184.004 27.4873 183.768 27.7824 183.635C28.0775 183.502 28.411 183.482 28.72 183.578C28.7682 183.593 28.8178 183.603 28.8679 183.607C29.0107 183.616 29.1526 183.579 29.2725 183.501C29.3924 183.423 29.4839 183.309 29.5334 183.175C29.5829 183.041 29.5877 182.894 29.5471 182.757C29.5064 182.62 29.4226 182.5 29.308 182.414V182.414C29.269 182.378 29.2253 182.348 29.1782 182.324V182.324Z"
    fill="#4D8AF0" />
  <path opacity="0.5"
    d="M9.33889 63.0119C9.04417 62.8788 8.80823 62.6427 8.67539 62.348C8.54255 62.0533 8.52195 61.7203 8.61746 61.4115C8.6326 61.3634 8.64229 61.3139 8.64632 61.2637V61.2637C8.65553 61.121 8.61837 60.9792 8.54038 60.8594C8.46239 60.7395 8.34774 60.6481 8.21352 60.5987C8.0793 60.5492 7.93269 60.5444 7.79552 60.585C7.65836 60.6256 7.538 60.7094 7.45236 60.8239V60.8239C7.42347 60.8643 7.39927 60.9078 7.38022 60.9537C7.2508 61.252 7.01596 61.4923 6.72054 61.6286C6.42512 61.7649 6.08982 61.7877 5.77864 61.6926C5.73049 61.6779 5.68092 61.6682 5.63075 61.6638V61.6638C5.488 61.6546 5.34609 61.6917 5.22617 61.7697C5.10625 61.8476 5.01474 61.9622 4.96527 62.0963C4.9158 62.2304 4.91102 62.3769 4.95164 62.514C4.99225 62.651 5.0761 62.7713 5.19068 62.8569C5.23052 62.8876 5.27417 62.9131 5.32053 62.9326C5.61856 63.0626 5.85848 63.2973 5.99478 63.5923C6.13109 63.8873 6.15429 64.2221 6.06 64.533C6.0452 64.5799 6.03553 64.6283 6.03114 64.6772V64.6772C6.02105 64.8202 6.05758 64.9626 6.13526 65.0831C6.21293 65.2036 6.32758 65.2957 6.46202 65.3456C6.59647 65.3955 6.74348 65.4006 6.88104 65.36C7.0186 65.3194 7.13932 65.2355 7.22511 65.1206V65.1206C7.25475 65.0794 7.27899 65.0346 7.29725 64.9872C7.42986 64.6922 7.66604 64.4559 7.96115 64.3231C8.25625 64.1902 8.58982 64.17 8.89882 64.2663C8.94697 64.281 8.99654 64.2907 9.04671 64.2951C9.18947 64.3043 9.33137 64.2672 9.45129 64.1893C9.57121 64.1113 9.66272 63.9968 9.71219 63.8626C9.76166 63.7285 9.76644 63.582 9.72583 63.4449C9.68521 63.3079 9.60137 63.1876 9.48679 63.102V63.102C9.44224 63.0648 9.3924 63.0344 9.33889 63.0119V63.0119Z"
    fill="#4D8AF0" />
  <path opacity="0.5"
    d="M228.292 2.45471C227.998 2.32157 227.762 2.08548 227.629 1.79079C227.496 1.49609 227.476 1.16307 227.571 0.854272C227.586 0.806248 227.596 0.756671 227.6 0.706482V0.706482C227.609 0.563831 227.572 0.422025 227.494 0.302191C227.416 0.182358 227.301 0.0909113 227.167 0.0414749C227.033 -0.00796149 226.886 -0.0127408 226.749 0.0278482C226.612 0.0684373 226.492 0.152222 226.406 0.266721V0.266721C226.377 0.307109 226.353 0.350643 226.334 0.396487C226.201 0.691523 225.965 0.927789 225.67 1.06062C225.375 1.19346 225.041 1.21366 224.732 1.11741C224.684 1.10266 224.634 1.093 224.584 1.08857V1.08857C224.429 1.05597 224.267 1.0802 224.128 1.15683C223.989 1.23347 223.881 1.35743 223.826 1.5062C223.771 1.65498 223.77 1.81869 223.825 1.96761C223.881 2.11652 223.987 2.24075 224.126 2.31774V2.31774C224.166 2.34845 224.21 2.37389 224.256 2.39343C224.551 2.52657 224.787 2.76266 224.92 3.05736C225.052 3.35205 225.073 3.68507 224.977 3.99387C224.963 4.04075 224.953 4.0891 224.949 4.13806V4.13806C224.933 4.28649 224.969 4.43571 225.049 4.56163C225.129 4.68754 225.249 4.78279 225.39 4.83197C225.531 4.88114 225.685 4.88139 225.826 4.83266C225.967 4.78392 226.087 4.68906 226.168 4.5634V4.5634C226.197 4.5222 226.222 4.47738 226.24 4.43003C226.373 4.13499 226.609 3.89873 226.904 3.76589C227.199 3.63306 227.533 3.61286 227.842 3.70911C227.89 3.72385 227.939 3.73352 227.989 3.73795V3.73795C228.132 3.74715 228.274 3.71001 228.394 3.63208C228.514 3.55414 228.605 3.43958 228.655 3.30545C228.704 3.17133 228.709 3.02482 228.669 2.88775C228.628 2.75069 228.544 2.6304 228.43 2.54482V2.54482C228.388 2.50849 228.342 2.47816 228.292 2.45471V2.45471Z"
    fill="#4D8AF0" />
  <g opacity="0.5">
    <path opacity="0.5" d="M40.7607 92.9445H39.6785V99.0723H40.7607V92.9445Z" fill="#47E6B1" />
    <path opacity="0.5" d="M43.2857 96.5491V95.4678H37.1536V96.5491H43.2857Z" fill="#47E6B1" />
  </g>
  <g opacity="0.5">
    <path opacity="0.5" d="M300.475 64.1077H299.393V70.2355H300.475V64.1077Z" fill="#47E6B1" />
    <path opacity="0.5" d="M303 67.7123V66.6309H296.868V67.7123H303Z" fill="#47E6B1" />
  </g>
  <g opacity="0.5">
    <path opacity="0.5" d="M264.404 164.676H263.321V170.804H264.404V164.676Z" fill="#47E6B1" />
    <path opacity="0.5" d="M266.929 168.281V167.199H260.796V168.281H266.929Z" fill="#47E6B1" />
  </g>
  <path opacity="0.5"
    d="M260.796 31.6664C261.992 31.6664 262.961 30.6981 262.961 29.5036C262.961 28.3092 261.992 27.3409 260.796 27.3409C259.601 27.3409 258.632 28.3092 258.632 29.5036C258.632 30.6981 259.601 31.6664 260.796 31.6664Z"
    fill="#F55F44" />
  <path opacity="0.5"
    d="M2.16429 6.79469C3.35959 6.79469 4.32857 5.82639 4.32857 4.63193C4.32857 3.43748 3.35959 2.46918 2.16429 2.46918C0.968984 2.46918 0 3.43748 0 4.63193C0 5.82639 0.968984 6.79469 2.16429 6.79469Z"
    fill="#F55F44" />
  <path opacity="0.5"
    d="M67.0929 131.153C68.2882 131.153 69.2572 130.185 69.2572 128.99C69.2572 127.796 68.2882 126.828 67.0929 126.828C65.8976 126.828 64.9286 127.796 64.9286 128.99C64.9286 130.185 65.8976 131.153 67.0929 131.153Z"
    fill="#F55F44" />
  <path opacity="0.05"
    d="M84.4072 58.189C91.1805 58.189 96.6715 57.0593 96.6715 55.6658C96.6715 54.2723 91.1805 53.1426 84.4072 53.1426C77.6338 53.1426 72.1429 54.2723 72.1429 55.6658C72.1429 57.0593 77.6338 58.189 84.4072 58.189Z"
    fill="black" />
  <path opacity="0.05"
    d="M84.4072 77.2934C91.1805 77.2934 96.6715 76.1637 96.6715 74.7702C96.6715 73.3766 91.1805 72.2469 84.4072 72.2469C77.6338 72.2469 72.1429 73.3766 72.1429 74.7702C72.1429 76.1637 77.6338 77.2934 84.4072 77.2934Z"
    fill="black" />
  <path opacity="0.05"
    d="M224.004 58.189C230.777 58.189 236.268 57.0593 236.268 55.6658C236.268 54.2723 230.777 53.1426 224.004 53.1426C217.23 53.1426 211.739 54.2723 211.739 55.6658C211.739 57.0593 217.23 58.189 224.004 58.189Z"
    fill="black" />
  <path opacity="0.05"
    d="M224.004 77.2934C230.777 77.2934 236.268 76.1637 236.268 74.7702C236.268 73.3766 230.777 72.2469 224.004 72.2469C217.23 72.2469 211.739 73.3766 211.739 74.7702C211.739 76.1637 217.23 77.2934 224.004 77.2934Z"
    fill="black" />
  <path opacity="0.05"
    d="M155.829 47.3752C162.602 47.3752 168.093 46.2455 168.093 44.852C168.093 43.4584 162.602 42.3287 155.829 42.3287C149.055 42.3287 143.564 43.4584 143.564 44.852C143.564 46.2455 149.055 47.3752 155.829 47.3752Z"
    fill="black" />
  <path opacity="0.05"
    d="M164.846 21.0616C171.62 21.0616 177.111 19.9319 177.111 18.5384C177.111 17.1449 171.62 16.0152 164.846 16.0152C158.073 16.0152 152.582 17.1449 152.582 18.5384C152.582 19.9319 158.073 21.0616 164.846 21.0616Z"
    fill="black" />
  <path opacity="0.05"
    d="M141.4 31.8754C148.173 31.8754 153.664 30.7457 153.664 29.3522C153.664 27.9587 148.173 26.829 141.4 26.829C134.627 26.829 129.136 27.9587 129.136 29.3522C129.136 30.7457 134.627 31.8754 141.4 31.8754Z"
    fill="black" />
  <path opacity="0.05"
    d="M186.489 36.5614C193.263 36.5614 198.754 35.4317 198.754 34.0382C198.754 32.6446 193.263 31.515 186.489 31.515C179.716 31.515 174.225 32.6446 174.225 34.0382C174.225 35.4317 179.716 36.5614 186.489 36.5614Z"
    fill="black" />
  <path opacity="0.05"
    d="M155.829 84.863C162.602 84.863 168.093 83.7333 168.093 82.3398C168.093 80.9463 162.602 79.8166 155.829 79.8166C149.055 79.8166 143.564 80.9463 143.564 82.3398C143.564 83.7333 149.055 84.863 155.829 84.863Z"
    fill="black" />
  <defs>
    <linearGradient id="paint0_linear" x1="155.829" y1="88.5938" x2="155.829" y2="6.79468"
      gradientUnits="userSpaceOnUse">
      <stop stop-color="#808080" stop-opacity="0.25" />
      <stop offset="0.54" stop-color="#808080" stop-opacity="0.12" />
      <stop offset="1" stop-color="#808080" stop-opacity="0.1" />
    </linearGradient>
    <linearGradient id="paint1_linear" x1="-16989.1" y1="124090" x2="-13180.7" y2="112776"
      gradientUnits="userSpaceOnUse">
      <stop stop-color="#808080" stop-opacity="0.25" />
      <stop offset="0.54" stop-color="#808080" stop-opacity="0.12" />
      <stop offset="1" stop-color="#808080" stop-opacity="0.1" />
    </linearGradient>
    <linearGradient id="paint2_linear" x1="-14774.8" y1="99101.3" x2="-10966.3" y2="87787"
      gradientUnits="userSpaceOnUse">
      <stop stop-color="#808080" stop-opacity="0.25" />
      <stop offset="0.54" stop-color="#808080" stop-opacity="0.12" />
      <stop offset="1" stop-color="#808080" stop-opacity="0.1" />
    </linearGradient>
    <linearGradient id="paint3_linear" x1="92355.6" y1="14440.3" x2="92355.6" y2="5800.35"
      gradientUnits="userSpaceOnUse">
      <stop stop-color="#808080" stop-opacity="0.25" />
      <stop offset="0.54" stop-color="#808080" stop-opacity="0.12" />
      <stop offset="1" stop-color="#808080" stop-opacity="0.1" />
    </linearGradient>
  </defs>
</svg>