<svg xmlns="http://www.w3.org/2000/svg" xmlns:xlink="http://www.w3.org/1999/xlink" width="275.173" height="189.686" viewBox="0 0 275.173 189.686">
  <defs>
    <linearGradient id="linear-gradient" x1="0.5" y1="1" x2="0.5" gradientUnits="objectBoundingBox">
      <stop offset="0" stop-color="gray" stop-opacity="0.251"/>
      <stop offset="0.54" stop-color="gray" stop-opacity="0.122"/>
      <stop offset="1" stop-color="gray" stop-opacity="0.102"/>
    </linearGradient>
  </defs>
  <g id="undraw_to_do_list_a49b" transform="translate(0.003 0)">
    <path id="Path_1" data-name="Path 1" d="M107.262,61.344c9.336-8.409,23.992-10.122,37.331-9.452,41.9,2.1,79.72,22.527,112.436,45.631,11.843,8.364,23.5,17.385,31.2,28.9,15.652,23.446,11.008,55.928-10.753,75.243-7.4,6.573-16.38,11.61-25.595,16.078-16.383,7.94-34.056,14.313-52.654,16.128-13.26,1.293-26.673.238-39.867-1.562-36.831-5.044-72.983-16.195-103.286-35.28-13.3-8.369-25.823-18.774-31.3-32.32s-1.972-30.7,11.6-38.71c5.613-3.315,12.322-4.811,18.893-6.218,9.672-2.067,19.5-4.108,28.224-8.314,9.014-4.344,19.686-12.746,17.9-22.363C99.474,78.789,97.938,69.727,107.262,61.344Z" transform="translate(-22.3 -51.76)" fill="#38d39f" opacity="0.1"/>
    <path id="Path_2" data-name="Path 2" d="M279,496.266a5.606,5.606,0,0,1,5.025-.676s-.714,1.519-3.9,1.5Z" transform="translate(-217.868 -389.617)" fill="#38d39f"/>
    <path id="Path_3" data-name="Path 3" d="M277.379,500a5.605,5.605,0,0,0,1.35,4.889s1.115-1.255-.152-4.175Z" transform="translate(-216.554 -393.249)" fill="#38d39f"/>
    <path id="Path_4" data-name="Path 4" d="M264,482.313s.09-2.5,5.759-1.891a2.692,2.692,0,0,1-1.86,2.448A3.246,3.246,0,0,1,264,482.313Z" transform="translate(-206.44 -378.26)" fill="#38d39f"/>
    <path id="Path_5" data-name="Path 5" d="M259.156,488.65s-2.355.857-.026,6.063a2.693,2.693,0,0,0,1.755-2.524A3.255,3.255,0,0,0,259.156,488.65Z" transform="translate(-201.947 -384.602)" fill="#38d39f"/>
    <path id="Path_6" data-name="Path 6" d="M248.529,461.813s-.476-4.1,5.3-3.9c0,0,.55,3.7-4.242,4.844Z" transform="translate(-194.647 -361.183)" fill="#38d39f"/>
    <path id="Path_7" data-name="Path 7" d="M231.83,443.585s.612-4.685,6.43-3.52c0,0,.176,4.025-5.439,4.594Z" transform="translate(-181.932 -347.446)" fill="#38d39f"/>
    <path id="Path_8" data-name="Path 8" d="M219.38,424.137s1.148-4.594,6.907-3.446c0,0-1.191,4.132-6.495,4.27Z" transform="translate(-172.447 -332.687)" fill="#38d39f"/>
    <path id="Path_9" data-name="Path 9" d="M207.53,404.524s1.112-4.763,6.668-3.553c0,0-1.667,4.542-6.28,4.342Z" transform="translate(-163.419 -317.654)" fill="#38d39f"/>
    <path id="Path_10" data-name="Path 10" d="M199.66,382.6s.774-5.794,5.954-4.718c0,0-1.291,5.294-5.549,5.54Z" transform="translate(-157.423 -300.113)" fill="#38d39f"/>
    <path id="Path_11" data-name="Path 11" d="M192.09,361.092s.969-5.847,6.228-4.358c0,0-1.829,5.561-5.835,5.147Z" transform="translate(-151.656 -283.918)" fill="#38d39f"/>
    <path id="Path_12" data-name="Path 12" d="M187.13,336.221s1.667-5.873,5.7-5.871c0,0-1.7,6.192-5.316,7.021Z" transform="translate(-147.877 -264.002)" fill="#38d39f"/>
    <path id="Path_13" data-name="Path 13" d="M183.71,313.253s1.793-7.064,5.085-6.649c0,0-1.222,5.392-4.927,7.733Z" transform="translate(-145.272 -245.898)" fill="#38d39f"/>
    <path id="Path_14" data-name="Path 14" d="M181.28,290.169s1.708-5.892,4.927-6.249c0,0-1.1,5.775-4.8,7.759Z" transform="translate(-143.42 -228.63)" fill="#38d39f"/>
    <path id="Path_15" data-name="Path 15" d="M178.76,267.823s2.186-5.918,4.315-6.133c0,0-.826,5.775-4.065,7.08Z" transform="translate(-141.501 -211.694)" fill="#38d39f"/>
    <path id="Path_16" data-name="Path 16" d="M176.83,243.9s1.238-6.385,3.348-6.99c0,0-.093,5.185-3.117,7.454Z" transform="translate(-140.03 -192.815)" fill="#38d39f"/>
    <path id="Path_17" data-name="Path 17" d="M172.4,219.627s1.365-5.1,3.06-5.937c0,0-.114,5.954-2.62,7.145Z" transform="translate(-136.655 -175.125)" fill="#38d39f"/>
    <path id="Path_18" data-name="Path 18" d="M166.8,192.078l-.655-8.878s3.477,6.587.953,10.438Z" transform="translate(-131.894 -151.897)" fill="#38d39f"/>
    <path id="Path_19" data-name="Path 19" d="M146.951,162.2s-2.57-6.4-3.141-6.745c0,0,4.715,4.049,4.477,9.474Z" transform="translate(-114.874 -130.763)" fill="#38d39f"/>
    <path id="Path_20" data-name="Path 20" d="M235.8,474.184s-4.108-.379-3.763,5.389c0,0,3.715.46,4.737-4.361Z" transform="translate(-182.071 -373.577)" fill="#38d39f"/>
    <path id="Path_21" data-name="Path 21" d="M217.677,454.82s-4.72.164-4.111,6.059c0,0,3.989.557,5.087-4.98Z" transform="translate(-167.976 -358.829)" fill="#38d39f"/>
    <path id="Path_22" data-name="Path 22" d="M197.156,436.373s-4.363-1.846-6.906,3.446c0,0,4.022,1.522,7.316-2.62Z" transform="translate(-150.254 -344.538)" fill="#38d39f"/>
    <path id="Path_23" data-name="Path 23" d="M185.212,415.538s-4.468-1.972-6.852,3.2c0,0,4.632,1.4,7.245-2.41Z" transform="translate(-141.196 -328.621)" fill="#38d39f"/>
    <path id="Path_24" data-name="Path 24" d="M175.63,393.431s-4.377-3.872-7.59.338c0,0,4.442,3.153,7.819.552Z" transform="translate(-133.334 -310.822)" fill="#38d39f"/>
    <path id="Path_25" data-name="Path 25" d="M168.805,369.981s-4.406-3.963-7.585.476c0,0,4.9,3.2,7.771.379Z" transform="translate(-128.138 -292.955)" fill="#38d39f"/>
    <path id="Path_26" data-name="Path 26" d="M165.64,341.6s-3.47-5.025-7.28-3.729c0,0,3.606,5.325,7.29,4.942Z" transform="translate(-125.959 -269.566)" fill="#38d39f"/>
    <path id="Path_27" data-name="Path 27" d="M162.933,317.541s-3.551-6.364-6.623-5.118c0,0,2.567,4.9,6.747,6.2Z" transform="translate(-124.397 -250.221)" fill="#38d39f"/>
    <path id="Path_28" data-name="Path 28" d="M160.617,294.949s-3.587-4.977-6.737-4.232c0,0,2.97,5.073,7.123,5.7Z" transform="translate(-122.546 -233.75)" fill="#38d39f"/>
    <path id="Path_29" data-name="Path 29" d="M164.3,268.989s-2.846-5.63-4.985-5.6c0,0,1.479,5.644,4.844,6.568Z" transform="translate(-126.69 -212.989)" fill="#38d39f"/>
    <path id="Path_30" data-name="Path 30" d="M160.169,247.738s-3.144-5.692-5.339-5.62c0,0,1.686,4.906,5.261,6.135Z" transform="translate(-123.27 -196.782)" fill="#38d39f"/>
    <path id="Path_31" data-name="Path 31" d="M160.989,223.384s-2.37-4.72-4.2-5.194c0,0,1.317,5.811,4.006,6.478Z" transform="translate(-124.763 -178.554)" fill="#38d39f"/>
    <path id="Path_32" data-name="Path 32" d="M151.256,196.629l-5.166-7.249s1.531,7.292,5.932,8.64Z" transform="translate(-116.611 -156.605)" fill="#38d39f"/>
    <path id="Path_33" data-name="Path 33" d="M133.052,172.635s-5.813-3.7-6.052-4.325c0,0,3.1,5.378,8.493,6.14Z" transform="translate(-102.067 -140.553)" fill="#38d39f"/>
    <path id="Path_34" data-name="Path 34" d="M123.776,160.12s-6.754-6.013-8.416-5.942a10.666,10.666,0,0,1,8.574,5.6Z" transform="translate(-93.2 -129.786)" fill="#38d39f"/>
    <path id="Path_35" data-name="Path 35" d="M155.505,192.964l-.238.04c-1.591-9.538-3.594-15.132-5.637-15.756l.069-.238C151.862,177.667,153.876,183.181,155.505,192.964Z" transform="translate(-119.308 -147.181)" fill="#444053"/>
    <path id="Path_36" data-name="Path 36" d="M175.966,264.534l-.357.043c-.11-.891-.2-1.805-.279-2.715-.645-7.919-1.455-15.182-2.36-20.617l.2-.264c.907,5.444,1.874,12.922,2.522,20.853C175.764,262.738,175.856,263.645,175.966,264.534Z" transform="translate(-137.089 -195.916)" fill="#444053"/>
    <path id="Path_37" data-name="Path 37" d="M213.255,380.076a46.766,46.766,0,0,1-13.3-9.076,52.071,52.071,0,0,1-9.964-13.027,60.8,60.8,0,0,1-6.3-20.9l.381.162c2.024,16.476,9.983,27.488,16.195,33.406a46.238,46.238,0,0,0,13.158,8.99Z" transform="translate(-145.256 -269.122)" fill="#444053"/>
    <g id="Group_1" data-name="Group 1" transform="translate(52.918 1.432)" opacity="0.7">
      <path id="Path_38" data-name="Path 38" d="M320.84,435.405a5.617,5.617,0,0,1,5,.85s-1.136,1.238-4.17.272Z" transform="translate(-302.662 -345.278)" fill="#38d39f"/>
      <path id="Path_39" data-name="Path 39" d="M317.169,436.23A5.608,5.608,0,0,0,317,441.3s1.429-.864,1.1-4.03Z" transform="translate(-299.314 -346.098)" fill="#38d39f"/>
      <path id="Path_40" data-name="Path 40" d="M309.75,417.891s.834-2.363,6.061-.093a2.688,2.688,0,0,1-2.505,1.784A3.253,3.253,0,0,1,309.75,417.891Z" transform="translate(-294.213 -331.305)" fill="#38d39f"/>
      <path id="Path_41" data-name="Path 41" d="M302.143,420.89s-2.5.119-1.829,5.78a2.692,2.692,0,0,0,2.429-1.889A3.251,3.251,0,0,0,302.143,420.89Z" transform="translate(-286.936 -334.411)" fill="#38d39f"/>
      <path id="Path_42" data-name="Path 42" d="M299.3,394.513s.76-4.049,6.213-2.143c0,0-.574,3.7-5.489,3.363Z" transform="translate(-286.251 -312.294)" fill="#38d39f"/>
      <path id="Path_43" data-name="Path 43" d="M288.94,372.261s1.977-4.287,7.178-1.448c0,0-1.029,3.894-6.561,2.767Z" transform="translate(-278.359 -295.52)" fill="#38d39f"/>
      <path id="Path_44" data-name="Path 44" d="M282.9,350.416s2.465-4.049,7.621-1.236c0,0-2.382,3.587-7.471,2.143Z" transform="translate(-273.757 -279.021)" fill="#38d39f"/>
      <path id="Path_45" data-name="Path 45" d="M277.31,328.078s2.477-4.211,7.428-1.407c0,0-2.941,3.839-7.285,2.277Z" transform="translate(-269.499 -261.897)" fill="#38d39f"/>
      <path id="Path_46" data-name="Path 46" d="M275.27,304.767s2.463-5.3,7.092-2.729c0,0-2.808,4.668-6.945,3.637Z" transform="translate(-267.944 -243.327)" fill="#38d39f"/>
      <path id="Path_47" data-name="Path 47" d="M274.69,281.9s2.665-5.294,7.24-2.308c0,0-3.4,4.763-7.1,3.177Z" transform="translate(-267.502 -226.065)" fill="#38d39f"/>
      <path id="Path_48" data-name="Path 48" d="M276.16,257.736s3.334-5.111,7.183-3.91c0,0-3.47,5.413-7.164,5.123Z" transform="translate(-268.622 -206.995)" fill="#38d39f"/>
      <path id="Path_49" data-name="Path 49" d="M278.451,234.239s3.811-6.209,6.833-4.835c0,0-2.772,4.785-7,5.916Z" transform="translate(-270.237 -188.378)" fill="#38d39f"/>
      <path id="Path_50" data-name="Path 50" d="M282.854,211.746s3.387-5.118,6.564-4.5c0,0-2.763,5.189-6.887,5.98Z" transform="translate(-273.475 -171.607)" fill="#38d39f"/>
      <path id="Path_51" data-name="Path 51" d="M288.115,189.163s3.846-5,5.942-4.568c0,0-2.508,5.268-5.987,5.547Z" transform="translate(-277.696 -154.37)" fill="#38d39f"/>
      <path id="Path_52" data-name="Path 52" d="M292.71,164.907s3.082-5.716,5.278-5.678c0,0-1.634,4.923-5.194,6.192Z" transform="translate(-281.231 -135.066)" fill="#38d39f"/>
      <path id="Path_53" data-name="Path 53" d="M296.7,140.123s2.822-4.463,4.689-4.763c0,0-1.881,5.654-4.625,6.052Z" transform="translate(-284.271 -116.882)" fill="#38d39f"/>
      <path id="Path_54" data-name="Path 54" d="M298.181,109.254l2.017-8.674s1.36,7.323-2.2,10.241Z" transform="translate(-285.261 -90.385)" fill="#38d39f"/>
      <path id="Path_55" data-name="Path 55" d="M295.163,74.813s-.55-6.878-.993-7.383c0,0,3.3,5.258,1.458,10.379Z" transform="translate(-282.343 -65.129)" fill="#38d39f"/>
      <path id="Path_56" data-name="Path 56" d="M282.074,402.073s-3.81-1.581-5.194,4.03c0,0,3.408,1.543,5.818-2.755Z" transform="translate(-269.171 -319.919)" fill="#38d39f"/>
      <path id="Path_57" data-name="Path 57" d="M270,378.841s-4.556-1.246-5.728,4.563c0,0,3.644,1.72,6.34-3.241Z" transform="translate(-259.564 -302.291)" fill="#38d39f"/>
      <path id="Path_58" data-name="Path 58" d="M257.921,355.67s-3.615-3.06-7.621,1.236c0,0,3.387,2.651,7.766-.329Z" transform="translate(-248.921 -283.919)" fill="#38d39f"/>
      <path id="Path_59" data-name="Path 59" d="M252.912,331.993s-3.682-3.21-7.492,1.012c0,0,4.006,2.715,7.633-.143Z" transform="translate(-245.203 -265.795)" fill="#38d39f"/>
      <path id="Path_60" data-name="Path 60" d="M251.859,306.943s-3.029-5-7.349-1.939c0,0,3.3,4.334,7.3,2.858Z" transform="translate(-244.51 -245.368)" fill="#38d39f"/>
      <path id="Path_61" data-name="Path 61" d="M252.193,282.6s-3.029-5.094-7.383-1.8c0,0,3.725,4.525,7.3,2.674Z" transform="translate(-244.739 -226.838)" fill="#38d39f"/>
      <path id="Path_62" data-name="Path 62" d="M259.41,252.341s-1.817-5.828-5.84-5.716c0,0,1.858,6.159,5.49,6.887Z" transform="translate(-251.412 -201.647)" fill="#38d39f"/>
      <path id="Path_63" data-name="Path 63" d="M264.029,228.361s-1.5-7.133-4.8-6.857c0,0,1,5.439,4.6,7.933Z" transform="translate(-255.724 -182.505)" fill="#38d39f"/>
      <path id="Path_64" data-name="Path 64" d="M268.625,205.867s-1.943-5.821-5.175-6.047c0,0,1.327,5.728,5.106,7.561Z" transform="translate(-258.939 -165.99)" fill="#38d39f"/>
      <path id="Path_65" data-name="Path 65" d="M279.916,181.948s-1.043-6.221-3.1-6.828c0,0-.264,5.828,2.672,7.714Z" transform="translate(-269.121 -147.172)" fill="#38d39f"/>
      <path id="Path_66" data-name="Path 66" d="M282.315,160.434s-1.307-6.371-3.425-6.954c0,0,.15,5.185,3.2,7.421Z" transform="translate(-270.702 -130.686)" fill="#38d39f"/>
      <path id="Path_67" data-name="Path 67" d="M290.208,137.459s-.857-5.211-2.463-6.209c0,0-.476,5.94,1.905,7.383Z" transform="translate(-277.419 -113.75)" fill="#38d39f"/>
      <path id="Path_68" data-name="Path 68" d="M288.837,108.939l-2.777-8.459s-.714,7.416,3.1,10.014Z" transform="translate(-276.124 -90.308)" fill="#38d39f"/>
      <path id="Path_69" data-name="Path 69" d="M278.764,80.66s-4.461-5.266-4.494-5.93c0,0,1.365,6.056,6.28,8.388Z" transform="translate(-267.182 -70.691)" fill="#38d39f"/>
      <path id="Path_70" data-name="Path 70" d="M273.638,65.951s-4.661-7.752-6.268-8.181a10.651,10.651,0,0,1,6.506,7.9Z" transform="translate(-261.926 -57.77)" fill="#38d39f"/>
      <path id="Path_71" data-name="Path 71" d="M293.944,106.78l-.238-.033c1.317-9.576,1.072-15.516-.7-16.718l.136-.2C295.02,91.109,295.294,96.97,293.944,106.78Z" transform="translate(-281.459 -82.195)" fill="#444053"/>
      <path id="Path_72" data-name="Path 72" d="M277.995,181.4l-.355-.064c.162-.884.343-1.784.543-2.677,1.741-7.752,3.129-14.925,3.88-20.384l.269-.2c-.753,5.478-2.055,12.9-3.8,20.66C278.335,179.614,278.154,180.509,277.995,181.4Z" transform="translate(-269.75 -134.191)" fill="#444053"/>
      <path id="Path_73" data-name="Path 73" d="M290.111,302.565a46.871,46.871,0,0,1-10-12.622,52.03,52.03,0,0,1-5.635-15.4,60.746,60.746,0,0,1,.2-21.832l.314.267c-2.965,16.333,1.357,29.217,5.535,36.716a46.109,46.109,0,0,0,9.886,12.5Z" transform="translate(-266.656 -206.284)" fill="#444053"/>
    </g>
    <path id="Path_74" data-name="Path 74" d="M1007.929,805.828s-10.069-.607-8.881,6.449a1.717,1.717,0,0,0,.893,1.812s.019-.524,1.034-.345a4.611,4.611,0,0,0,1.093.052,2.291,2.291,0,0,0,1.338-.552h0s2.829-1.169,3.93-5.794c0,0,.815-1.01.784-1.269l-1.7.714a3.043,3.043,0,0,1,.124,2.243s-.055-2.2-.381-2.143c-.067.012-.884.426-.884.426s1,2.143.238,3.687c0,0,.286-2.632-.557-3.534l-1.191.7s1.167,2.205.376,4c0,0,.2-2.76-.629-3.834l-1.084.845s1.1,2.174.429,3.665c0,0-.088-3.213-.662-3.456a6.237,6.237,0,0,0-1.093,1.191s.75,1.577.286,2.41c0,0-.286-2.143-.522-2.143a6.956,6.956,0,0,0-1.043,2.382,5.145,5.145,0,0,1,.815-2.524,2.832,2.832,0,0,0-1.446.748s.148-1,1.667-1.091a6.609,6.609,0,0,1,.991-1.141,6.233,6.233,0,0,0-2.451.283,2.736,2.736,0,0,1,2.729-.517l1.069-.874a8.861,8.861,0,0,0-2.858.029s.979-.836,3.146-.226l1.165-.7a10.608,10.608,0,0,0-2.729-.238,4.184,4.184,0,0,1,3.072.048l.833-.374s-1.255-.238-1.622-.286-.386-.141-.386-.141a4.339,4.339,0,0,1,2.353.262A10.66,10.66,0,0,0,1007.929,805.828Z" transform="translate(-766.358 -626.232)" fill="#38d39f"/>
    <ellipse id="Ellipse_1" data-name="Ellipse 1" cx="7.126" cy="1.205" rx="7.126" ry="1.205" transform="translate(227.51 187.267)" fill="#38d39f" opacity="0.1"/>
    <path id="Path_75" data-name="Path 75" d="M1101.573,727.777s-5.675-.341-5,3.637a.969.969,0,0,0,.5,1.022s.012-.3.583-.2a2.531,2.531,0,0,0,.617.031,1.275,1.275,0,0,0,.753-.312h0a4.509,4.509,0,0,0,2.217-3.268s.46-.569.441-.714l-.953.41a1.719,1.719,0,0,1,.069,1.265s-.031-1.241-.214-1.21c-.038,0-.5.238-.5.238a2.839,2.839,0,0,1,.138,2.079s.162-1.484-.314-1.991l-.674.393a2.981,2.981,0,0,1,.212,2.258,4.232,4.232,0,0,0-.355-2.162l-.61.476a2.91,2.91,0,0,1,.238,2.067s-.05-1.81-.374-1.948a3.8,3.8,0,0,0-.617.664s.424.891.162,1.36c0,0-.162-1.207-.293-1.212a4,4,0,0,0-.588,1.348,2.913,2.913,0,0,1,.46-1.429,1.607,1.607,0,0,0-.817.422s.083-.564.953-.615a3.705,3.705,0,0,1,.557-.643,3.51,3.51,0,0,0-1.381.16,1.555,1.555,0,0,1,1.539-.293l.6-.491a4.98,4.98,0,0,0-1.612.017,1.944,1.944,0,0,1,1.774-.129l.657-.393a6.005,6.005,0,0,0-1.541-.133,2.362,2.362,0,0,1,1.731.029l.476-.212s-.714-.138-.915-.16-.219-.081-.219-.081a2.458,2.458,0,0,1,1.329.148A5.668,5.668,0,0,0,1101.573,727.777Z" transform="translate(-840.688 -566.774)" fill="#38d39f"/>
    <ellipse id="Ellipse_2" data-name="Ellipse 2" cx="4.018" cy="0.679" rx="4.018" ry="0.679" transform="translate(252.959 165.33)" fill="#38d39f" opacity="0.1"/>
    <path id="Path_76" data-name="Path 76" d="M957.512,742.271s-6.854-.414-6.044,4.389a1.169,1.169,0,0,0,.607,1.234s0-.355.7-.238a3.271,3.271,0,0,0,.745.038,1.568,1.568,0,0,0,.91-.376h0s1.927-.8,2.677-3.946c0,0,.555-.686.531-.862l-1.155.493a2.075,2.075,0,0,1,.083,1.529s-.036-1.5-.26-1.462c-.045,0-.6.288-.6.288a3.427,3.427,0,0,1,.167,2.51s.2-1.791-.379-2.405l-.814.476a3.6,3.6,0,0,1,.255,2.727,5.162,5.162,0,0,0-.426-2.62l-.738.574a3.515,3.515,0,0,1,.293,2.5s-.06-2.186-.453-2.353a4.483,4.483,0,0,0-.743.8s.51,1.074.193,1.641c0,0-.193-1.455-.352-1.462A4.906,4.906,0,0,0,952,747.37a3.517,3.517,0,0,1,.555-1.719,1.935,1.935,0,0,0-.984.51s.1-.684,1.143-.743a4.478,4.478,0,0,1,.674-.776,4.241,4.241,0,0,0-1.667.193,1.866,1.866,0,0,1,1.855-.352l.729-.593a5.989,5.989,0,0,0-1.946.019,2.371,2.371,0,0,1,2.143-.155l.793-.476a7.171,7.171,0,0,0-1.86-.162,2.863,2.863,0,0,1,2.091.033l.569-.233s-.853-.167-1.1-.193-.262-.1-.262-.1a2.96,2.96,0,0,1,1.6.179A7.172,7.172,0,0,0,957.512,742.271Z" transform="translate(-730.133 -577.815)" fill="#38d39f"/>
    <ellipse id="Ellipse_3" data-name="Ellipse 3" cx="4.851" cy="0.819" rx="4.851" ry="0.819" transform="translate(217.807 169.679)" fill="#38d39f" opacity="0.1"/>
    <path id="Path_77" data-name="Path 77" d="M339.236,425.022l-23.889,9.243-34.918,13.5c-1.317-2.446-3.26-5.792-5.666-9.764-8.269-13.706-21.953-35.023-34.132-53.756-13.727-21.108-25.54-38.931-25.54-38.931l8.552-2.479L293.5,322.57Z" transform="translate(-169.178 -258.075)" opacity="0.1"/>
    <path id="Path_78" data-name="Path 78" d="M341.236,418.022l-23.889,9.243-34.918,13.5c-1.317-2.446-3.26-5.792-5.666-9.764-8.269-13.706-21.953-35.023-34.132-53.756-13.727-21.108-25.54-38.931-25.54-38.931l8.552-2.479L295.5,315.57Z" transform="translate(-170.702 -252.742)" fill="#fff"/>
    <path id="Path_79" data-name="Path 79" d="M368.593,418.022,344.7,427.265A179.664,179.664,0,0,1,304.12,431c-8.269-13.706-21.953-35.023-34.132-53.756L253,335.83l69.856-20.26Z" transform="translate(-198.06 -252.742)" opacity="0.1"/>
    <path id="Path_80" data-name="Path 80" d="M375.7,379.666s-37.114,21.953-92.523,17L239,288.974l21.17-3.637,73.18-12.567,41.522,104.815Z" transform="translate(-187.394 -220.135)" fill="#38d39f"/>
    <path id="Path_81" data-name="Path 81" d="M442.623,377.585a175.708,175.708,0,0,1-29.022-.824c-11.008-1.291-22.068-3.963-31.57-8.855a95.856,95.856,0,0,1-20.639-13.863C346.006,340.2,336.482,320.4,327.93,285.337l73.18-12.567Z" transform="translate(-255.145 -220.135)" opacity="0.1"/>
    <path id="Path_82" data-name="Path 82" d="M453.962,271.237s-27.369,5.363-55.2,2.06c-11.008-1.3-22.079-3.963-31.57-8.855a95.853,95.853,0,0,1-20.639-13.863c-19.052-17.147-29.105-43.4-39.474-96.431,0,0,45.488,10.977,90.43-13.068C397.51,141.08,412.669,235.692,453.962,271.237Z" transform="translate(-239.26 -119.808)" fill="#fff"/>
    <path id="Path_83" data-name="Path 83" d="M525.038,591c-11.008-1.3-22.079-3.963-31.57-8.855a95.857,95.857,0,0,1-20.639-13.863c16.216-1.317,18.548-10.184,18.548-10.184C503.4,577.181,525.038,591,525.038,591Z" transform="translate(-365.536 -437.512)" opacity="0.1"/>
    <path id="Path_84" data-name="Path 84" d="M405.85,245.522s24.435,2.789,47.3-10.062l1.567,5.032A121.5,121.5,0,0,1,405.85,251.4Z" transform="translate(-314.508 -191.711)" fill="#38d39f" opacity="0.3"/>
    <path id="Path_85" data-name="Path 85" d="M405.85,333.92a160.905,160.905,0,0,0,51.334-15.03l.915,2.091s-9.953,12.525-52.249,15.8Z" transform="translate(-314.508 -255.271)" opacity="0.3"/>
    <path id="Path_86" data-name="Path 86" d="M417.94,374.608a160.934,160.934,0,0,0,51.334-15.028l.915,2.091s-9.95,12.537-52.249,15.811Z" transform="translate(-323.719 -286.271)" opacity="0.3"/>
    <path id="Path_87" data-name="Path 87" d="M429,418.458a160.934,160.934,0,0,0,51.334-15.028l.915,2.091S471.284,418.05,429,421.332Z" transform="translate(-332.144 -319.678)" opacity="0.3"/>
    <path id="Path_88" data-name="Path 88" d="M442.13,456.038a160.935,160.935,0,0,0,51.334-15.028l.915,2.091s-9.95,12.532-52.249,15.814Z" transform="translate(-342.148 -348.308)" opacity="0.3"/>
    <path id="Path_89" data-name="Path 89" d="M454.23,496.758a160.934,160.934,0,0,0,51.334-15.028l.915,2.091s-9.953,12.532-52.249,15.811Z" transform="translate(-351.366 -379.33)" opacity="0.1"/>
    <rect id="Rectangle_1" data-name="Rectangle 1" width="7.18" height="7.18" transform="translate(146.69 59.41) rotate(-18.8)" fill="#38d39f" opacity="0.3"/>
    <rect id="Rectangle_2" data-name="Rectangle 2" width="7.18" height="7.18" transform="translate(150.557 69.523) rotate(-18.8)" fill="#38d39f" opacity="0.3"/>
    <rect id="Rectangle_3" data-name="Rectangle 3" width="7.18" height="7.18" transform="translate(156.756 88.98) rotate(-18.8)" fill="#38d39f" opacity="0.3"/>
    <rect id="Rectangle_4" data-name="Rectangle 4" width="7.18" height="7.18" transform="translate(160.313 99.423) rotate(-18.8)" fill="#38d39f" opacity="0.3"/>
    <rect id="Rectangle_5" data-name="Rectangle 5" width="7.18" height="7.18" transform="translate(153.71 80.028) rotate(-18.8)" fill="#38d39f" opacity="0.3"/>
    <path id="Path_90" data-name="Path 90" d="M816.809,328.835l-.255-.238c.657-.133,1.277-.193,1.277-.193s-2.255-8.159-6.059-10.881a17.855,17.855,0,0,1-4.556-5.509,83.276,83.276,0,0,0-6.785-9.948l-.686-.865-.3-.376a3.284,3.284,0,0,0,.86-1.941.033.033,0,0,1,0-.014.893.893,0,0,0,0-.114,1.327,1.327,0,0,0-.048-.264l-.026.04c-.321-.934-1.557-1.346-2.474-1.86-2.143-1.207-3.06-3.846-3.518-6.3-.357-1.905-.653-4.049-2.143-5.275-.953-.788-2.248-1.048-3.208-1.831a9.379,9.379,0,0,1-1.989-2.906,11.638,11.638,0,0,0-3.87-4.365,6.454,6.454,0,0,0-5.589-.738c-.7.267-1.331.681-2.022.969-1.715.714-3.68.619-5.378,1.374-2.091.929-3.451,2.982-4.694,4.93a23.459,23.459,0,0,0-2.227,3.965v-.155a5.672,5.672,0,0,0-.443,2.062,3.1,3.1,0,0,0,.1.9,2.888,2.888,0,0,0,1.934,1.846,8.053,8.053,0,0,0,.21.9,8.812,8.812,0,0,0,5.692,5.813c.079.029.16.048.238.071a1.891,1.891,0,0,0,.283.524c.76.953,2.284.681,3.275-.012.041-.026.079-.06.117-.088a3.563,3.563,0,0,0,.043.4c.021.114.038.238.062.341a16.462,16.462,0,0,0,3.179,7.411s.212.319.557.848A10.623,10.623,0,0,0,780.8,314.3c-1.207.7-3.81,2.065-5.42,1.951,0,0-5.916.764-6.6.381-.1-.052-.186.019-.271.181-1.629-.993-6.837-3.856-7.283-.181-.4,3.334,4.344,3.76,6.6,3.777-.1.976-.16,1.758-.16,1.758l9.719-.664,5.061-.745a6.089,6.089,0,0,1-1.808,1.722s-4.575,3.7-5.366,3.737c-.112,0-.148.112-.131.291-1.924,0-7.909.279-6.249,3.613,1.508,3.022,5.751.931,7.671-.224.453.879.838,1.567.838,1.567l7.842-5.585,1.7-1.429a6.045,6.045,0,0,0,1.689-.326.2.2,0,0,0,.024.062,3.217,3.217,0,0,1,.136.538c.476,2.736-1.124,9.119-1.124,9.119s-3.52,8.976-1.829,10.2.441,6.39.441,6.39a9.55,9.55,0,0,0,1.015,1.4h0a4.253,4.253,0,0,0,.593.564,5.522,5.522,0,0,0-.2.655,5.34,5.34,0,0,0,.279,3.3c1.162,2.82.455,6.907.455,6.907l-2.282,15.413a6.481,6.481,0,0,0-3.036,0c-.807.455-.543,2.748,1.331,3.734a4.825,4.825,0,0,1-1.929.888c-1.667.381-2.839.624-3.61.772-.05,0-4-.872-5.016-.3s-.526,3.772,2.36,4.556c2.825.764,13.358,1.886,16.392,1.429l.193-.033c2.579-.51.314-3.9.029-4.311-.019-.138-.036-.283-.055-.441-.04-.352-.076-.757-.1-1.191a38.525,38.525,0,0,0,7.018.2.758.758,0,0,0,.171-.031c2.284-.453.283-3.448.026-3.81q-.017-.138-.036-.293v-.026c0-.069-.017-.143-.024-.214a.926.926,0,0,0-.019-.186c-.019-.064,0-.114-.017-.174q-.014-.176-.029-.364v-.155c0-.1-.012-.191-.017-.288v-.16c0-.143,0-.291-.014-.438v-1.165c0-.16.014-.324.024-.488L799.8,376c0-.121.019-.238.031-.362a.572.572,0,0,1,.019-.179c.019-.167.041-.333.064-.5a1.082,1.082,0,0,1,.024-.15c.021-.126.043-.255.067-.383a.936.936,0,0,1,.038-.191q.043-.207.093-.414a.5.5,0,0,1,.026-.114c.043-.167.09-.331.14-.5.017-.057.036-.114.055-.171.041-.124.083-.238.129-.367l.057-.152c.064-.162.133-.322.2-.476.019-.04.041-.081.062-.121.06-.124.124-.238.19-.367l.081-.141c.09-.152.183-.3.286-.45,2.62-3.734,3.31-10.936,3.246-12.5s.312-4.818.781-5.3a41.369,41.369,0,0,0,3.237-4.787c.2-.352.369-.684.5-.979.776-.269,1.291-.476,1.291-.476h0a11.041,11.041,0,0,1-.391-3.07,9.3,9.3,0,0,1,2.877-6.864c3.4-3.2,3.87-6.373,3.915-7.592v-.226C816.82,328.944,816.809,328.835,816.809,328.835Z" transform="translate(-585.229 -221.767)" fill="url(#linear-gradient)"/>
    <path id="Path_91" data-name="Path 91" d="M889.124,573.4a40.912,40.912,0,0,1-3.1,4.732c-.448.476-.807,3.694-.745,5.239s-.593,8.671-3.1,12.363S880.97,605.8,880.97,605.8l-3.994,1.4h-4.8l-3.306-.988L868,603.81s1.162-.179,4.049-.865a3.746,3.746,0,0,0,2.989-3.4l2.027-14.154a13.547,13.547,0,0,0-.388-6.044,4.92,4.92,0,0,1,.324-4.311l.064-.1a40.365,40.365,0,0,1,6.313-4.015c2.822-1.362,5.685-2.01,6.5.407A4.2,4.2,0,0,1,889.124,573.4Z" transform="translate(-666.594 -446.356)" fill="#a5636d"/>
    <path id="Path_92" data-name="Path 92" d="M889.124,573.4a40.912,40.912,0,0,1-3.1,4.732c-.448.476-.807,3.694-.745,5.239s-.593,8.671-3.1,12.363c-1.762,2.6-1.646,6.537-1.429,8.635.093.879.207,1.429.207,1.429l-3.994,1.4h-4.794l-3.306-.981L868,603.81s.291-.045.953-.174,1.667-.348,3.11-.691a3.746,3.746,0,0,0,2.975-3.4l2.027-14.154a13.547,13.547,0,0,0-.388-6.044,4.92,4.92,0,0,1,.324-4.311l.064-.1a40.365,40.365,0,0,1,6.313-4.015c2.822-1.362,5.685-2.01,6.5.407A4.2,4.2,0,0,1,889.124,573.4Z" transform="translate(-666.594 -446.356)" opacity="0.05"/>
    <path id="Path_93" data-name="Path 93" d="M880.97,714.34l-3.994,1.4h-4.8l-3.306-.991L868,712.344s.291-.045.953-.174a1.8,1.8,0,0,0,1.384,1.943l1.877.064c.264,0,.531.014.793.014a23.929,23.929,0,0,0,7.759-1.288C880.86,713.782,880.97,714.34,880.97,714.34Z" transform="translate(-666.594 -554.89)" opacity="0.1"/>
    <path id="Path_94" data-name="Path 94" d="M860.53,713.159l-1.879-.064a1.833,1.833,0,0,1-1.324-2.36s-3.382-.767-4.246-.26-.448,3.306,2,3.991c2.382.669,11.3,1.653,13.868,1.25l.164-.029c2.324-.476,0-3.81,0-3.81h0a24.024,24.024,0,0,1-8.578,1.281Z" transform="translate(-654.914 -553.466)" fill="#bebed0"/>
    <path id="Path_95" data-name="Path 95" d="M856.981,576.232c-.126.252-.262.514-.417.788a44.36,44.36,0,0,1-3.4,5.192c-.5.538-.907,4.168-.843,5.921s-.669,9.783-3.494,13.951c-1.446,2.143-1.772,5.061-1.748,7.409q.011,1.193.14,2.381c.1.969.238,1.574.238,1.574l-4.506,1.579h-5.423l-3.732-1.11-.976-2.724s.326-.052,1.06-.2,1.877-.388,3.51-.774a4.234,4.234,0,0,0,3.365-3.834l2.284-15.973s.674-4.037-.436-6.823a5.477,5.477,0,0,1-.267-3.26,5.2,5.2,0,0,1,.714-1.719s.872-.686,2.186-1.593c.581-.4,1.255-.843,1.979-1.291,3.182-1.97,7.366-3.98,9.371-2.515a2.594,2.594,0,0,1,.924,1.331A3.383,3.383,0,0,1,856.981,576.232Z" transform="translate(-639.793 -448.642)" fill="#a5636d"/>
    <path id="Path_96" data-name="Path 96" d="M847.445,735.933l-4.506,1.579h-5.411L833.8,736.4l-.976-2.725s.326-.052,1.06-.2a1.989,1.989,0,0,0,.633,1.76,2.123,2.123,0,0,0,1.343.5l1.708.055c.3,0,.6.017.9.017a27.092,27.092,0,0,0,8.759-1.457C847.324,735.328,847.445,735.933,847.445,735.933Z" transform="translate(-639.793 -571.125)" opacity="0.1"/>
    <path id="Path_97" data-name="Path 97" d="M824.331,734.6l-1.705-.057a2.143,2.143,0,0,1-1.346-.5,2.106,2.106,0,0,1-.564-2.174s-3.81-.864-4.794-.293-.5,3.732,2.253,4.506c2.7.755,12.758,1.865,15.654,1.412l.183-.033c2.62-.538,0-4.306,0-4.306h0A27.019,27.019,0,0,1,824.331,734.6Z" transform="translate(-626.562 -569.524)" fill="#bebed0"/>
    <path id="Path_98" data-name="Path 98" d="M902.038,573.412a22.808,22.808,0,0,1-5.342,1.355,2.391,2.391,0,0,1-.407-.019h0a46.931,46.931,0,0,0-6.366.31c-1.045.093-2.051.19-2.882.276-1.238.129-2.091.222-2.091.222v-.807c.581-.4,1.255-.843,1.979-1.291,3.182-1.97,7.366-3.98,9.371-2.515,2.822-1.362,5.685-2.01,6.5.407A4.359,4.359,0,0,1,902.038,573.412Z" transform="translate(-679.508 -446.371)" opacity="0.1"/>
    <path id="Path_99" data-name="Path 99" d="M909.8,498.094a11.28,11.28,0,0,1-3.741,7.509c-4.134,4.037-2.382,9.833-2.382,9.833s-4.93,1.936-7.057,1.989a2.39,2.39,0,0,1-.407-.019,76.253,76.253,0,0,0-9.257.586c-1.238.129-2.091.221-2.091.221V501.067l22.846-5.547,2.07,2.06A3.811,3.811,0,0,1,909.8,498.094Z" transform="translate(-679.447 -389.836)" fill="#5c5c8e"/>
    <path id="Path_100" data-name="Path 100" d="M955.5,576.89" transform="translate(-733.256 -451.827)" fill="none"/>
    <g id="Group_2" data-name="Group 2" transform="translate(205.433 105.691)" opacity="0.1">
      <path id="Path_101" data-name="Path 101" d="M885.286,587.93l-.376.04v.181s.853-.093,2.091-.221c2.091-.212,5.285-.51,7.4-.6A83.347,83.347,0,0,0,885.286,587.93Z" transform="translate(-884.91 -565.455)"/>
      <path id="Path_102" data-name="Path 102" d="M943.934,497.612l-2.07-2.062-1.379.345,1.734,1.727a3.843,3.843,0,0,1,0,.517,11.285,11.285,0,0,1-3.742,7.509c-4.134,4.034-2.381,9.833-2.381,9.833a39.2,39.2,0,0,1-6.416,1.931,5.89,5.89,0,0,1,.667.036,2.374,2.374,0,0,0,.407.021c2.127-.052,7.057-1.989,7.057-1.989s-1.762-5.8,2.381-9.833a11.285,11.285,0,0,0,3.741-7.509A3.787,3.787,0,0,0,943.934,497.612Z" transform="translate(-919.018 -495.55)"/>
    </g>
    <path id="Path_103" data-name="Path 103" d="M774.079,448.182s-6.906-4.792-7.414-.476,7.414,3.7,7.414,3.7Z" transform="translate(-589.375 -352.037)" fill="#a5636d"/>
    <path id="Path_104" data-name="Path 104" d="M805.748,442.13s-3.737,2.472-5.8,2.32c0,0-5.649.757-6.306.379s-1.057,5.478-1.057,5.478l9.288-.655,5.954-.91s2.977-1.815,2.977-3.379S805.748,442.13,805.748,442.13Z" transform="translate(-609.136 -349.161)" fill="#f7cddd"/>
    <path id="Path_105" data-name="Path 105" d="M805.748,442.13s-3.737,2.472-5.8,2.32c0,0-5.649.757-6.306.379s-1.057,5.478-1.057,5.478l9.288-.655,5.954-.91s2.977-1.815,2.977-3.379S805.748,442.13,805.748,442.13Z" transform="translate(-609.136 -349.161)" opacity="0.05"/>
    <path id="Path_106" data-name="Path 106" d="M803.13,494.465s-8.4-.348-6.518,3.572,8.247-.838,8.247-.838Z" transform="translate(-611.998 -389.026)" fill="#a5636d"/>
    <path id="Path_107" data-name="Path 107" d="M841.333,417.271s-6.809-5.094-5.849-11.3,5.849,4.749,5.849,4.749Z" transform="translate(-641.751 -320.165)" fill="#5c5c8e"/>
    <path id="Path_108" data-name="Path 108" d="M797.37,313.88a8.617,8.617,0,0,1-2.422,5.98,8.1,8.1,0,0,1-1.243,1.06,8.88,8.88,0,0,1-2.825,1.305,8.975,8.975,0,0,1-1.222.217c-.3.029-.593.045-.9.045a8.4,8.4,0,0,1-2.836-.476,8.607,8.607,0,1,1,11.443-8.121Z" transform="translate(-599.67 -244.9)" fill="#a5636d"/>
    <path id="Path_109" data-name="Path 109" d="M900.594,498.094c-.772.143-1.724.4-1.724.8,0,.674-10.76,4.306-10.76,4.306s.4.938-.672,2.553-9.819,10.893-9.819,10.893l.029.276.112,1.069.533,5.111s-3.363-1.21-4.439-1.076a1.476,1.476,0,0,1-1.074-.5,5.2,5.2,0,0,1,.714-1.719s.872-.686,2.186-1.593V501.067l22.846-5.547,2.07,2.06A3.818,3.818,0,0,1,900.594,498.094Z" transform="translate(-670.236 -389.836)" opacity="0.1"/>
    <path id="Path_110" data-name="Path 110" d="M868.428,390.081s-2.691.267-2.691.941-10.76,4.306-10.76,4.306.4.938-.672,2.553-9.819,10.9-9.819,10.9l.674,6.454s-3.363-1.21-4.439-1.076c-.476.06-1.012-.383-1.453-.9a9.373,9.373,0,0,1-.969-1.384s1.212-5.113-.4-6.323,1.748-10.086,1.748-10.086,1.519-6.311,1.072-9.019a3.25,3.25,0,0,0-.129-.534.191.191,0,0,0-.019-.06c-.953-2.586-11.279-24.292-11.279-24.292a15.592,15.592,0,0,1,.129-1.841c.021-.169.05-.345.081-.524a8.878,8.878,0,0,1,.21-.953,5.967,5.967,0,0,1,.2-.593c.319-.819.807-1.45,1.536-1.465a4.514,4.514,0,0,1,2.7-1.136,11.75,11.75,0,0,1,6.044,1.136c6.318,2.686,7.8,2.824,7.8,2.824l3.175,4.168.653.855a82.372,82.372,0,0,1,6.48,9.836,17.508,17.508,0,0,0,4.351,5.449C866.276,382.012,868.428,390.081,868.428,390.081Z" transform="translate(-637.103 -282.77)" fill="#f7cddd"/>
    <path id="Path_111" data-name="Path 111" d="M894.65,437.05s8.978,2.22,12.458,7.816Z" transform="translate(-686.898 -345.291)" opacity="0.1"/>
    <path id="Path_112" data-name="Path 112" d="M906.3,478.34s1.7,11.4,1.227,12.258S906.3,478.34,906.3,478.34Z" transform="translate(-695.773 -376.747)" opacity="0.1"/>
    <path id="Path_113" data-name="Path 113" d="M878.944,493.692c-.653.855-3.3,7.464-3.3,7.464l.764,11.1.674,6.454s-3.36-1.21-4.437-1.076c-.476.06-1.015-.383-1.453-.9.7-3.779,2.191-11.689,2.46-11.841.355-.2,2.172-6.556,2.267-8.335s2.62-5.744,2.62-5.744S879.6,492.837,878.944,493.692Z" transform="translate(-669.025 -386.248)" opacity="0.1"/>
    <path id="Path_114" data-name="Path 114" d="M844.487,389.029c-.167.5-.424,3.429-.424,3.429a3.959,3.959,0,0,1-3.346,3.691,3.244,3.244,0,0,0-.129-.533c-.807-2.284-11.3-24.342-11.3-24.342a14.491,14.491,0,0,1,.419-3.32c2.284-.672,5.9.362,5.9.362,1.045-.138,4.456,6.642,4.456,6.642s2.272,5.192,2.522,5.9a12.519,12.519,0,0,1,.1,2.272c.1.4,1.162.753,1.312,1.31s.052,1.667.152,1.865A8.257,8.257,0,0,1,844.487,389.029Z" transform="translate(-637.103 -292.478)" opacity="0.1"/>
    <path id="Path_115" data-name="Path 115" d="M836.63,387.316c-.167.5-.424,3.429-.424,3.429a3.809,3.809,0,0,1-2.686,3.5,5.63,5.63,0,0,1-1.615.322l-1.622,1.41-7.49,5.513s-2.791-5.161-2.034-5.189,5.125-3.7,5.125-3.7c1.336-.714,2.674-3.1,3.3-4.32a3.76,3.76,0,0,1-.081-.443c-.269-2.284-5.918-11.029-5.918-11.029a16.516,16.516,0,0,1-3.034-7.33c-.024-.11-.041-.221-.062-.336a3.408,3.408,0,0,1-.043-.448c-.1-1.831,1.231-2.5,2.813-2.655h0a11.288,11.288,0,0,1,2.477.076,17.932,17.932,0,0,1,2.422.476c.676-.09,2.343,2.722,3.437,4.715h0c.588,1.081,1.012,1.924,1.012,1.924s2.272,5.194,2.522,5.9a12.518,12.518,0,0,1,.1,2.272c.1.4,1.162.755,1.312,1.312s.052,1.667.152,1.865A8.279,8.279,0,0,1,836.63,387.316Z" transform="translate(-630.054 -291.17)" fill="#f7cddd"/>
    <path id="Path_116" data-name="Path 116" d="M814.894,329.421c-1.429,1.46-3.737,1.465-5.589.714A37.505,37.505,0,0,1,804.165,327c-1.115-.681-2.3-1.238-3.394-1.941h0c-.162-.1-.319-.21-.476-.319-1.267-.9-2.365-2.046-3.677-2.858a5.715,5.715,0,0,0-2.953-.953,3.358,3.358,0,0,0-1.407.3,1.916,1.916,0,0,0-.238.117,6.073,6.073,0,0,0-1.191.893c-.372.333-.726.688-1.117,1-.024-.11-.041-.221-.062-.336a3.419,3.419,0,0,1-.043-.448c-.3.029-.593.045-.9.045a8.4,8.4,0,0,1-2.836-.476.193.193,0,0,0-.021-.107c-.321-1.7-.9-3.491-2.267-4.444a15.783,15.783,0,0,0-3.148-1.191,8.607,8.607,0,1,1,16.218.931,11.75,11.75,0,0,1,6.044,1.136c6.318,2.686,7.8,2.825,7.8,2.825l3.175,4.168a3.562,3.562,0,0,0-.767,1.653C812.848,328.109,813.941,328.892,814.894,329.421Z" transform="translate(-599.63 -244.911)" opacity="0.1"/>
    <path id="Path_117" data-name="Path 117" d="M777.869,297.547c1.365.953,1.946,2.746,2.27,4.439a3.461,3.461,0,0,0,.519,1.505c.714.938,2.181.674,3.127,0a18.367,18.367,0,0,1,2.746-2.172,4.732,4.732,0,0,1,4.361.65c1.312.822,2.41,1.972,3.677,2.858,1.227.865,2.594,1.481,3.87,2.26a36.811,36.811,0,0,0,5.139,3.139c1.853.743,4.168.741,5.587-.714-.953-.529-2.046-1.31-1.972-2.443s1.393-1.979,1.305-3.141-1.455-1.617-2.436-2.189c-2.048-1.191-2.922-3.81-3.36-6.228-.341-1.891-.622-4-2.034-5.218-.912-.781-2.143-1.036-3.063-1.81a9.416,9.416,0,0,1-1.905-2.875,11.433,11.433,0,0,0-3.694-4.318,5.924,5.924,0,0,0-5.337-.729c-.667.264-1.274.674-1.931.953-1.638.714-3.513.612-5.135,1.357-2,.919-3.3,2.948-4.484,4.875-1.005,1.65-3,4.561-2.434,6.7C773.246,296.63,776.387,296.514,777.869,297.547Z" transform="translate(-593.903 -225.805)" fill="#4c3e42"/>
    <g id="Group_3" data-name="Group 3" transform="translate(178.676 65.717)" opacity="0.1">
      <path id="Path_118" data-name="Path 118" d="M920.481,378.4a1.5,1.5,0,0,0-.045-.262,4.03,4.03,0,0,0-.855,1.789,1.623,1.623,0,0,0,.038.46A3.463,3.463,0,0,0,920.481,378.4Z" transform="translate(-884.565 -366.127)"/>
      <path id="Path_119" data-name="Path 119" d="M803.961,344.666a36.8,36.8,0,0,1-5.137-3.139c-1.279-.779-2.646-1.4-3.872-2.26-1.267-.9-2.365-2.046-3.677-2.858a4.766,4.766,0,0,0-4.361-.653,17.758,17.758,0,0,0-2.746,2.174c-.948.686-2.4.953-3.127,0a3.462,3.462,0,0,1-.519-1.505c-.321-1.693-.9-3.487-2.267-4.439-1.484-1.036-4.625-.919-5.194-3.1a3.384,3.384,0,0,1-.074-1.191,4.759,4.759,0,0,0-.331,2.8c.572,2.186,3.713,2.07,5.194,3.1,1.365.953,1.946,2.748,2.27,4.442a3.49,3.49,0,0,0,.517,1.505c.714.938,2.182.674,3.129-.012a17.629,17.629,0,0,1,2.746-2.172,4.74,4.74,0,0,1,4.361.653c1.312.822,2.41,1.972,3.677,2.858,1.226.867,2.594,1.481,3.87,2.26a36.607,36.607,0,0,0,5.139,3.141c1.853.743,4.168.738,5.587-.714a6.836,6.836,0,0,1-1.041-.688A5.935,5.935,0,0,1,803.961,344.666Z" transform="translate(-772.561 -327.7)"/>
    </g>
    <path id="Path_120" data-name="Path 120" d="M718.415,444.207l19.052-7.116a1.81,1.81,0,0,1,2.332,1.062h0a1.812,1.812,0,0,1-1.065,2.332L719.682,447.6l-4.082-.41Z" transform="translate(-550.489 -345.234)" fill="#5c5c8e"/>
    <path id="Path_121" data-name="Path 121" d="M739.205,438.476h0a1.815,1.815,0,0,1-1.065,2.334l-19.052,7.116-3.068-.307-.44.476,4.082.41,19.052-7.118a1.812,1.812,0,0,0,1.065-2.332h0a1.805,1.805,0,0,0-.741-.9A1.972,1.972,0,0,1,739.205,438.476Z" transform="translate(-550.474 -346.129)" fill="#fff" opacity="0.1"/>
    <path id="Path_122" data-name="Path 122" d="M696.115,415.58l1.269,3.4-3.351-.336-.733-.074,1-1.062Z" transform="translate(-528.189 -316.607)" fill="#efc8c4"/>
    <path id="Path_123" data-name="Path 123" d="M716.615,475.42a.727.727,0,0,1,.2.214.307.307,0,0,1,0,.331.747.747,0,0,1-.186.131.607.607,0,0,0-.271.46l-.734-.074Z" transform="translate(-550.504 -374.523)" fill="#727a9c"/>
    <path id="Path_124" data-name="Path 124" d="M646.615,291.193l-3.213-1.567a.388.388,0,0,1-.179-.519l.341-.7a.386.386,0,0,1,.519-.179l2.165,1.055,2.26-4.635a.391.391,0,0,1,.519-.181l.7.343a.386.386,0,0,1,.179.519l-2.772,5.685a.388.388,0,0,1-.519.179Z" transform="translate(-495.32 -229.018)" fill="#3acc6c"/>
    <path id="Path_125" data-name="Path 125" d="M676.085,375.348l-3.213-1.567a.388.388,0,0,1-.179-.519l.341-.7a.391.391,0,0,1,.522-.179l2.162,1.055,2.258-4.639a.391.391,0,0,1,.519-.181l.7.343a.388.388,0,0,1,.181.519l-2.772,5.685a.393.393,0,0,1-.522.179Z" transform="translate(-517.771 -293.127)" fill="#3acc6c"/>
    <path id="Path_126" data-name="Path 126" d="M662.852,333.854l-3.213-1.567a.391.391,0,0,1-.181-.519l.343-.7a.386.386,0,0,1,.519-.179l2.165,1.055,2.26-4.642a.388.388,0,0,1,.519-.179l.7.341a.393.393,0,0,1,.179.522l-2.774,5.69a.388.388,0,0,1-.519.179Z" transform="translate(-507.689 -261.514)" fill="#3acc6c"/>
    <path id="Path_127" data-name="Path 127" d="M688.885,413.363l-3.213-1.567a.388.388,0,0,1-.179-.519l.341-.7a.388.388,0,0,1,.519-.179l2.165,1.055,2.26-4.635a.393.393,0,0,1,.522-.181l.7.343a.386.386,0,0,1,.179.519l-2.77,5.685A.393.393,0,0,1,688.885,413.363Z" transform="translate(-527.523 -322.092)" fill="#3acc6c"/>
    <path id="Path_128" data-name="Path 128" d="M183.039,693.36s1.417,1.853-.653,4.649-3.78,5.158-3.1,6.906c0,0,3.125-5.194,5.666-5.266S185.835,696.484,183.039,693.36Z" transform="translate(-141.788 -540.559)" fill="#3acc6c"/>
    <path id="Path_129" data-name="Path 129" d="M183.315,693.36a2.283,2.283,0,0,1,.291.581c2.479,2.915,3.81,5.635,1.417,5.716-2.222.062-4.887,4.034-5.523,5.037a1.827,1.827,0,0,0,.074.238s3.125-5.194,5.666-5.266S186.111,696.484,183.315,693.36Z" transform="translate(-142.064 -540.559)" opacity="0.1"/>
    <path id="Path_130" data-name="Path 130" d="M205.536,701.933c0,.65-.074,1.191-.164,1.191s-.162-.529-.162-1.191.09-.345.181-.345S205.536,701.281,205.536,701.933Z" transform="translate(-161.651 -546.77)" fill="#ffd037"/>
    <path id="Path_131" data-name="Path 131" d="M206.8,705.082c-.572.312-1.072.5-1.115.422s.386-.4.953-.714.345-.086.388,0S207.369,704.77,206.8,705.082Z" transform="translate(-162.008 -549.142)" fill="#ffd037"/>
    <path id="Path_132" data-name="Path 132" d="M153.954,693.36s-1.415,1.853.655,4.649,3.777,5.158,3.1,6.906c0,0-3.122-5.194-5.666-5.266S151.158,696.484,153.954,693.36Z" transform="translate(-120.186 -540.559)" fill="#3acc6c"/>
    <path id="Path_133" data-name="Path 133" d="M153.914,693.36a2.335,2.335,0,0,0-.288.581c-2.482,2.915-3.81,5.635-1.417,5.716,2.22.062,4.885,4.034,5.523,5.037a1.839,1.839,0,0,1-.076.238s-3.122-5.216-5.67-5.287S151.118,696.484,153.914,693.36Z" transform="translate(-120.146 -540.559)" opacity="0.1"/>
    <path id="Path_134" data-name="Path 134" d="M153.05,701.933c0,.65.071,1.191.162,1.191s.164-.529.164-1.191-.091-.345-.181-.345S153.05,701.281,153.05,701.933Z" transform="translate(-121.914 -546.77)" fill="#ffd037"/>
    <path id="Path_135" data-name="Path 135" d="M148.145,705.082c.574.312,1.072.5,1.115.422s-.386-.4-.953-.714-.348-.086-.391,0S147.573,704.77,148.145,705.082Z" transform="translate(-117.913 -549.142)" fill="#ffd037"/>
    <ellipse id="Ellipse_4" data-name="Ellipse 4" cx="14.811" cy="2.272" rx="14.811" ry="2.272" transform="translate(22.701 173.978)" fill="#38d39f" opacity="0.1"/>
    <path id="Path_136" data-name="Path 136" d="M163.022,728.607l-.071.579-.1.817-.043.341-.1.817-.045.341-.1.817-1.134,9.288c-.1.829-1.458,1.477-3.1,1.477h-5.885c-1.636,0-2.989-.648-3.1-1.477l-1.134-9.288-.1-.817-.04-.341-.1-.817-.04-.341-.1-.817-.071-.579c-.055-.476.676-.867,1.6-.867h12.048C162.351,727.74,163.082,728.138,163.022,728.607Z" transform="translate(-117.889 -566.751)" fill="#65617d"/>
    <path id="Path_137" data-name="Path 137" d="M140.914,682.05l-.1.817H125.908l-.1-.817Z" transform="translate(-95.85 -519.616)" fill="#9d9cb5"/>
    <path id="Path_138" data-name="Path 138" d="M141.223,686.91l-.1.817H126.5l-.1-.817Z" transform="translate(-96.299 -523.318)" fill="#9d9cb5"/>
    <path id="Path_139" data-name="Path 139" d="M141.529,691.77l-.1.817H127.09l-.1-.817Z" transform="translate(-96.749 -527.021)" fill="#9d9cb5"/>
  </g>
</svg>
