<svg width="337" height="208" viewBox="0 0 337 208" fill="none" xmlns="http://www.w3.org/2000/svg">
<path d="M274.548 51.0826L104.068 0L62.9421 136.666L233.422 187.748L274.548 51.0826Z" fill="#F1F1F1"/>
<path d="M81.6667 208C126.77 208 163.333 204.128 163.333 199.352C163.333 194.576 126.77 190.704 81.6667 190.704C36.5634 190.704 0 194.576 0 199.352C0 204.128 36.5634 208 81.6667 208Z" fill="#3F3D56"/>
<path d="M89.2473 22.8063H69.423V51.6352H89.2473V22.8063Z" fill="#2F2E41"/>
<path d="M73.2542 36.1049C73.2542 36.1049 74 50.3379 67.4048 50.9216C62.7903 51.33 76.4038 63.9423 76.4038 63.9423L88.1027 47.7786C88.1027 47.7786 79.3333 48.6748 84.953 38.7988L73.2542 36.1049Z" fill="#FFB8B8"/>
<path opacity="0.1" d="M88.1033 47.7801L84.4067 52.8891L76.4033 63.9421C76.4033 63.9421 69.72 57.7487 67.3067 53.9036C66.4 52.4567 66.0933 51.3424 66.9733 51.0131C66.9772 51.0105 66.982 51.0093 66.9867 51.0098C67.113 50.9626 67.2454 50.9335 67.38 50.9233C67.3877 50.9216 67.3955 50.9205 67.4033 50.92C67.7876 50.8878 68.1657 50.8027 68.5267 50.6672C73.9133 48.6582 73.2533 36.1051 73.2533 36.1051L84.9533 38.7993C81.2033 45.3885 83.86 47.1847 86.0433 47.647C86.5225 47.7467 87.0105 47.798 87.5 47.8C87.87 47.8034 88.1033 47.7801 88.1033 47.7801Z" fill="black"/>
<path d="M91.5422 24.4152C89.4002 30.7433 86.1159 36.5092 79.4222 36.5092C72.7286 36.5092 67.6794 31.0839 67.3023 24.4152C66.8204 15.8939 72.5742 12.2859 79.4222 12.3212C87.5121 12.3629 94.0841 16.9052 91.5422 24.4152Z" fill="#2F2E41"/>
<path d="M62.9052 127.25L66.0549 149.251C66.0549 149.251 63.3552 162.721 64.705 172.149L66.0549 182.027H72.3542L74.1541 171.7C74.1541 171.7 75.9539 160.925 75.9539 155.986C75.9539 155.986 80.9034 133.536 77.7537 129.046L62.9052 127.25Z" fill="#FFB8B8"/>
<path d="M101.151 125.903L98.0017 149.251C98.0017 149.251 100.701 162.721 99.3515 172.149L98.0017 182.027H91.7023L89.9025 171.7C89.9025 171.7 88.1027 160.925 88.1027 155.986C88.1027 155.986 83.1532 132.189 86.3029 127.699L101.151 125.903Z" fill="#FFB8B8"/>
<path d="M94.852 180.68C94.852 180.68 98.4516 179.333 98.9016 181.129C99.3515 182.925 100.251 192.354 100.251 192.354C100.251 192.354 102.951 196.395 104.751 196.844C106.551 197.293 110.6 203.13 105.651 203.579C100.701 204.028 95.7519 202.232 95.7519 201.334C95.7519 200.436 93.9521 199.987 93.0522 199.987C92.1523 199.987 89.0026 198.64 89.4525 197.293C89.9025 195.946 91.2524 180.231 91.2524 180.231L94.852 180.68Z" fill="#2F2E41"/>
<path d="M69.2046 180.68C69.2046 180.68 65.6049 179.333 65.155 181.129C64.705 182.925 63.8051 192.354 63.8051 192.354C63.8051 192.354 61.1054 196.395 59.3056 196.844C57.5058 197.293 53.4562 203.13 58.4057 203.579C63.3552 204.028 68.3047 202.232 68.3047 201.334C68.3047 200.436 70.1045 199.987 71.0044 199.987C71.9043 199.987 75.054 198.64 74.604 197.293C74.1541 195.946 72.8042 180.231 72.8042 180.231L69.2046 180.68Z" fill="#2F2E41"/>
<path d="M80.0035 41.3738C85.1562 41.3738 89.3334 37.2056 89.3334 32.0639C89.3334 26.9222 85.1562 22.754 80.0035 22.754C74.8508 22.754 70.6736 26.9222 70.6736 32.0639C70.6736 37.2056 74.8508 41.3738 80.0035 41.3738Z" fill="#FFB8B8"/>
<path d="M115.1 83.2475C115.1 83.2475 96.2033 91.3301 94.4033 82.7984C93.2965 77.4666 92.5449 72.0674 92.1533 66.6364C92.1515 66.6346 92.1492 66.6334 92.1467 66.6331C91.8833 66.4734 82.5733 60.7723 84.4067 52.8892C84.8334 51.1816 85.6349 49.5899 86.7533 48.2292C86.7533 48.2292 87.03 48.0496 87.5 47.8001C88.051 47.5065 88.6199 47.2476 89.2033 47.0251C92.38 45.8177 97.6633 45.1358 98.9 53.1653C100.7 64.8402 100.7 77.4133 100.7 77.4133C100.7 77.4133 106.1 80.5566 113.3 77.4133C120.5 74.27 127.7 76.0662 128.15 80.1075C128.6 84.1455 115.1 83.2475 115.1 83.2475Z" fill="#FFB8B8"/>
<path d="M67.4033 50.92L67.3067 53.9036L66.2334 87.5382L66.0533 93.1262L50.3067 110.639C50.3067 110.639 47.1567 120.065 40.4067 121.412C33.6567 122.759 44.9067 108.394 44.9067 108.394L60.2067 85.9416L60.23 85.1866C60.4024 78.8959 59.8769 72.6056 58.6633 66.4302C58.2142 64.1316 58.1277 61.7771 58.4067 59.4518C59.0333 54.4425 63.1633 52.2705 65.6033 51.4157C66.0518 51.2552 66.5093 51.1208 66.9734 51.0132C66.9773 51.0106 66.982 51.0094 66.9867 51.0099C67.19 50.96 67.3267 50.9334 67.38 50.9234C67.3877 50.9216 67.3955 50.9205 67.4033 50.92Z" fill="#FFB8B8"/>
<path d="M92.6033 83.2474V85.0435C86.0433 93.0431 71.5233 89.2645 66.2333 87.5382C64.99 87.1324 64.2567 86.8397 64.2567 86.8397C64.5259 86.2772 64.679 85.6663 64.7067 85.0435V81.0055C64.7067 79.6584 65.1533 80.5565 65.6033 80.1074C66.0533 79.6584 64.2567 76.9642 64.2567 76.9642C59.7567 74.27 62.4567 66.6363 62.4567 66.6363L65.6033 59.9008V51.4156C66.0518 51.2551 66.5093 51.1207 66.9733 51.0131C66.9772 51.0105 66.982 51.0093 66.9867 51.0098C67.113 50.9626 67.2455 50.9335 67.38 50.9233C67.3877 50.9216 67.3955 50.9205 67.4033 50.92C67.7877 50.8878 68.1657 50.8027 68.5267 50.6672C69.37 52.4035 71.2033 54.6886 75.0533 54.9613C79.6633 55.2906 84.0333 50.3313 86.0433 47.647C86.5225 47.7467 87.0105 47.798 87.5 47.8C88.051 47.5064 88.6199 47.2475 89.2033 47.025L87.2033 55.4104C85.4333 59.8243 91.9233 66.4035 92.1467 66.633C92.1492 66.6333 92.1515 66.6345 92.1533 66.6363V71.5757L91.7033 76.9642L91.2533 78.3113L92.1533 79.6584L91.7033 81.0055L92.1533 81.9036C92.6033 82.7983 92.6033 82.3526 92.6033 83.2474Z" fill="#D0CDE1"/>
<path d="M65.155 86.392L63.8052 85.943C63.8052 85.943 47.6068 126.352 58.4057 128.148C69.2046 129.944 77.3038 133.087 79.1036 129.944C80.9034 126.801 80.0035 115.576 80.0035 115.576L81.8033 115.127C81.8033 115.127 78.6536 131.74 84.953 130.393C91.2523 129.046 108.801 126.801 108.801 125.005C108.801 123.209 92.6022 84.421 92.6022 84.421C92.6022 84.421 85.8529 88.6369 65.155 86.392Z" fill="#2F2E41"/>
<path d="M79.4222 14.8672C82.0645 14.8672 84.2064 12.7299 84.2064 10.0933C84.2064 7.45671 82.0645 5.31934 79.4222 5.31934C76.78 5.31934 74.6381 7.45671 74.6381 10.0933C74.6381 12.7299 76.78 14.8672 79.4222 14.8672Z" fill="#2F2E41"/>
<path d="M73.6812 7.54715C73.6813 6.36372 74.1219 5.22249 74.9175 4.34484C75.713 3.4672 76.8069 2.91569 77.987 2.7973C77.8296 2.7817 77.6701 2.77319 77.5086 2.77319C76.2397 2.77319 75.0228 3.27617 74.1256 4.17146C73.2284 5.06675 72.7244 6.28102 72.7244 7.54715C72.7244 8.81328 73.2284 10.0276 74.1256 10.9228C75.0228 11.8181 76.2397 12.3211 77.5086 12.3211C77.6701 12.3211 77.8296 12.3126 77.987 12.297C76.8069 12.1786 75.7131 11.6271 74.9175 10.7495C74.1219 9.87181 73.6813 8.73059 73.6812 7.54715V7.54715Z" fill="#2F2E41"/>
<path d="M75.5697 20.076C75.5697 20.076 75.4698 19.521 71.5628 20.983C67.6558 22.445 65.3138 33.2339 67.2673 39.5692C68.0546 42.1223 67.4142 43.9631 66.3689 45.2511C62.4465 50.0843 63.9906 57.3437 69.7039 59.8291C69.8652 59.8992 70.0297 59.9686 70.1976 60.0371L72.6395 61.4991C72.6395 61.4991 69.5266 57.412 71.0844 52.1838C72.4372 47.7292 72.6043 42.9998 71.5692 38.4612C71.3904 37.6956 71.1874 36.9064 70.9568 36.101C69.0033 29.2783 69.9534 30.0662 76.7907 23.2436C76.7907 23.2436 80.6977 26.1676 84.1163 27.6296C87.535 29.0916 90.4652 30.5536 88.0233 35.4269C85.5814 40.3002 79.7209 44.6862 83.628 51.0215C87.535 57.3568 88.0233 54.9201 87.535 57.3568L87.0466 59.7934L89.9768 56.8695L88.0233 60.7681C88.0233 60.7681 94.3722 60.7681 96.3257 55.8948L97.3025 56.8695C97.3025 56.8695 101.209 50.0468 93.8838 43.7115C93.8838 43.7115 91.442 42.2495 94.8606 37.3762C98.2792 32.5029 95.6537 22.0253 91.2583 20.076C86.8629 18.1266 75.5697 20.076 75.5697 20.076Z" fill="#2F2E41"/>
<path d="M126.312 95.8989L139.45 91.7919C138.723 86.3396 137.063 81.0523 134.543 76.1605L121.405 80.2676C124.488 84.9107 126.189 90.3305 126.312 95.8989Z" fill="#009688"/>
<path d="M337 1.11011H152.333V76.2823H337V1.11011Z" fill="#3F3D56"/>
<path d="M178.874 29.095H165.106C164.166 23.6751 164.166 18.1345 165.106 12.7146H178.874C177.323 18.0651 177.323 23.7446 178.874 29.095V29.095Z" fill="#FF6584"/>
<path d="M190.793 36.0726H204.561C205.5 30.6527 205.5 25.112 204.561 19.6921H190.793C192.344 25.0426 192.344 30.7221 190.793 36.0726V36.0726Z" fill="#009688"/>
<path d="M221.405 12.0417C223.666 23.411 224.31 35.0417 223.317 46.5905C223.056 49.5974 222.683 52.5917 222.199 55.5734C221.978 56.9289 221.726 58.2781 221.467 59.6268C221.319 60.3997 221.008 61.3618 221.495 62.0893C222.443 63.5062 225.694 63.1364 227.127 63.1827C230.106 63.2789 233.091 63.2951 236.072 63.347L245.04 63.5032L249.358 63.5784C250.829 63.604 252.441 63.8315 253.9 63.6438C255.821 63.3966 255.353 61.3891 255.324 59.8976C255.267 56.949 255.188 54.001 255.088 51.0534C254.692 39.3728 253.962 27.7097 252.899 16.0643C252.764 14.5786 252.848 12.8011 252.447 11.3646C252.285 10.7839 252.124 10.6159 251.492 10.5116C250.044 10.2727 248.318 10.5243 246.853 10.5345L241.955 10.5685L222.036 10.7068C221.906 10.7113 221.783 10.7658 221.693 10.8589C221.603 10.952 221.553 11.0763 221.553 11.2057C221.553 11.3351 221.603 11.4595 221.693 11.5526C221.783 11.6456 221.906 11.7002 222.036 11.7047L238.363 11.5913L245.547 11.5414L249.466 11.5142C250.271 11.5086 251.024 11.2652 251.529 12.1495C251.849 12.709 251.718 14.1081 251.779 14.7591C252.754 25.1996 253.462 35.6605 253.902 46.1417C254.011 48.7609 254.105 51.3807 254.181 54.0011C254.213 55.0929 254.242 56.1848 254.267 57.2768C254.283 57.932 254.298 58.5872 254.311 59.2424C254.325 59.9182 254.605 61.2426 254.359 61.8634C253.835 63.1872 251.498 62.6178 250.354 62.5978L246.369 62.5284L238.397 62.3896L230.425 62.2508C229.107 62.2278 227.787 62.2178 226.47 62.1617C226.033 62.1431 225.596 62.1222 225.159 62.0912C223.86 61.9989 222.461 62.3053 222.307 60.5134C222.211 59.4075 222.817 57.8825 223.007 56.7763C223.22 55.527 223.415 54.2747 223.589 53.0192C223.916 50.6736 224.176 48.3202 224.37 45.959C225.285 34.5272 224.612 23.024 222.369 11.7764C222.244 11.147 221.28 11.4134 221.405 12.0417V12.0417Z" fill="#F1F1F1"/>
<path d="M287.071 12.0417C289.333 23.411 289.976 35.0417 288.984 46.5905C288.723 49.5974 288.35 52.5917 287.865 55.5734C287.644 56.9289 287.392 58.2781 287.134 59.6268C286.986 60.3997 286.675 61.3618 287.162 62.0893C288.11 63.5062 291.361 63.1364 292.793 63.1827C295.773 63.2789 298.757 63.2951 301.738 63.347L310.707 63.5032L315.025 63.5784C316.496 63.604 318.107 63.8315 319.567 63.6438C321.488 63.3966 321.02 61.3891 320.991 59.8976C320.933 56.949 320.855 54.001 320.755 51.0534C320.358 39.3728 319.629 27.7097 318.566 16.0643C318.43 14.5786 318.515 12.8011 318.114 11.3646C317.952 10.7839 317.79 10.6159 317.158 10.5116C315.71 10.2727 313.985 10.5243 312.52 10.5345L307.622 10.5685L287.702 10.7068C287.573 10.7113 287.45 10.7658 287.36 10.8589C287.27 10.952 287.219 11.0763 287.219 11.2057C287.219 11.3351 287.27 11.4595 287.36 11.5526C287.45 11.6456 287.573 11.7002 287.702 11.7047L304.03 11.5913L311.214 11.5414L315.133 11.5142C315.938 11.5086 316.691 11.2652 317.196 12.1495C317.515 12.709 317.384 14.1081 317.445 14.7591C318.421 25.1996 319.129 35.6605 319.568 46.1417C319.678 48.7609 319.771 51.3807 319.848 54.0011C319.879 55.0929 319.908 56.1848 319.934 57.2768C319.95 57.932 319.964 58.5872 319.978 59.2424C319.992 59.9182 320.272 61.2426 320.026 61.8634C319.502 63.1872 317.164 62.6178 316.021 62.5978L312.035 62.5284L304.063 62.3896L296.092 62.2508C294.774 62.2278 293.454 62.2178 292.137 62.1617C291.7 62.1431 291.262 62.1222 290.826 62.0912C289.527 61.9989 288.128 62.3053 287.973 60.5134C287.878 59.4075 288.484 57.8825 288.673 56.7763C288.887 55.527 289.081 54.2747 289.256 53.0192C289.582 50.6736 289.843 48.3202 290.037 45.959C290.952 34.5272 290.279 23.024 288.036 11.7764C287.911 11.147 286.947 11.4134 287.071 12.0417V12.0417Z" fill="#F1F1F1"/>
<path d="M226.003 14.61H232.617C232.746 14.6056 232.869 14.551 232.959 14.458C233.049 14.3649 233.1 14.2405 233.1 14.1111C233.1 13.9817 233.049 13.8573 232.959 13.7643C232.869 13.6712 232.746 13.6167 232.617 13.6122H226.003C225.873 13.6167 225.75 13.6712 225.66 13.7643C225.57 13.8573 225.52 13.9817 225.52 14.1111C225.52 14.2405 225.57 14.3649 225.66 14.458C225.75 14.551 225.873 14.6056 226.003 14.61V14.61Z" fill="#F1F1F1"/>
<path d="M226.002 16.8611L232.237 16.626C232.878 16.6018 232.881 15.6038 232.237 15.6281L226.002 15.8633C225.361 15.8875 225.358 16.8855 226.002 16.8611Z" fill="#F1F1F1"/>
<path d="M226.003 18.7587H232.05C232.179 18.7542 232.302 18.6997 232.392 18.6066C232.482 18.5136 232.533 18.3892 232.533 18.2598C232.533 18.1304 232.482 18.006 232.392 17.9129C232.302 17.8199 232.179 17.7653 232.05 17.7609H226.003C225.873 17.7653 225.75 17.8199 225.66 17.9129C225.57 18.006 225.52 18.1304 225.52 18.2598C225.52 18.3892 225.57 18.5136 225.66 18.6066C225.75 18.6997 225.873 18.7542 226.003 18.7587V18.7587Z" fill="#F1F1F1"/>
<path d="M246.042 14.1416C244.685 13.4349 243.453 14.597 243.262 15.9247C243.168 16.574 243.148 17.4613 243.563 18.0128C243.986 18.576 244.8 18.8121 245.476 18.8538C246.767 18.9333 248.141 18.2148 248.458 16.8957C248.608 16.3101 248.535 15.69 248.253 15.1549C247.972 14.6198 247.501 14.2078 246.933 13.9983C246.324 13.7876 246.062 14.7512 246.668 14.9605C246.948 15.0769 247.183 15.2811 247.338 15.5423C247.492 15.8036 247.557 16.1078 247.523 16.4091C247.483 16.7557 247.331 17.0799 247.09 17.3324C246.849 17.5849 246.532 17.7519 246.187 17.808C245.361 17.9974 244.394 17.7941 244.235 16.8651C244.115 16.17 244.493 14.4596 245.538 15.0032C246.107 15.3 246.614 14.4391 246.042 14.1416V14.1416Z" fill="#F1F1F1"/>
<path d="M291.669 14.61H298.283C298.413 14.6056 298.536 14.551 298.626 14.458C298.716 14.3649 298.766 14.2405 298.766 14.1111C298.766 13.9817 298.716 13.8573 298.626 13.7643C298.536 13.6712 298.413 13.6167 298.283 13.6122H291.669C291.54 13.6167 291.417 13.6712 291.327 13.7643C291.237 13.8573 291.186 13.9817 291.186 14.1111C291.186 14.2405 291.237 14.3649 291.327 14.458C291.417 14.551 291.54 14.6056 291.669 14.61V14.61Z" fill="#F1F1F1"/>
<path d="M291.669 16.8611L297.903 16.626C298.545 16.6018 298.548 15.6038 297.903 15.6281L291.669 15.8633C291.027 15.8875 291.024 16.8855 291.669 16.8611Z" fill="#F1F1F1"/>
<path d="M291.669 18.7587H297.716C297.846 18.7542 297.969 18.6997 298.059 18.6066C298.149 18.5136 298.199 18.3892 298.199 18.2598C298.199 18.1304 298.149 18.006 298.059 17.9129C297.969 17.8199 297.846 17.7653 297.716 17.7609H291.669C291.54 17.7653 291.417 17.8199 291.327 17.9129C291.237 18.006 291.186 18.1304 291.186 18.2598C291.186 18.3892 291.237 18.5136 291.327 18.6066C291.417 18.6997 291.54 18.7542 291.669 18.7587V18.7587Z" fill="#F1F1F1"/>
<path d="M311.709 14.1416C310.352 13.4349 309.12 14.597 308.929 15.9247C308.835 16.574 308.815 17.4613 309.229 18.0128C309.653 18.576 310.467 18.8121 311.143 18.8538C312.434 18.9333 313.807 18.2148 314.125 16.8957C314.274 16.3101 314.201 15.69 313.92 15.1549C313.638 14.6198 313.168 14.2078 312.6 13.9983C311.991 13.7876 311.729 14.7512 312.334 14.9605C312.615 15.0769 312.85 15.2811 313.004 15.5423C313.159 15.8036 313.224 16.1078 313.19 16.4091C313.15 16.7557 312.998 17.0799 312.757 17.3324C312.516 17.5849 312.198 17.7519 311.853 17.808C311.028 17.9974 310.061 17.7941 309.901 16.8651C309.782 16.17 310.16 14.4596 311.204 15.0032C311.774 15.3 312.28 14.4391 311.709 14.1416V14.1416Z" fill="#F1F1F1"/>
<path d="M227.325 24.2309C234.601 24.3072 241.868 24.083 249.129 23.5584L248.647 22.9269C247.458 25.9317 247.491 29.0988 247.648 32.2776C247.688 33.074 247.938 34.148 247.776 34.9368C247.573 35.9289 246.68 35.6917 245.793 35.7203C243.838 35.7834 241.882 35.8288 239.927 35.8563C238.079 35.8824 236.232 35.8926 234.385 35.8871C233.516 35.8844 232.646 35.8782 231.777 35.8686C230.756 35.8573 229.596 36.1531 229.332 34.9732C229.164 34.2175 229.334 33.2235 229.334 32.4463L229.336 29.6034L229.34 23.9177C229.335 23.7884 229.281 23.6658 229.187 23.5759C229.094 23.486 228.97 23.4357 228.84 23.4357C228.71 23.4357 228.586 23.486 228.492 23.5759C228.399 23.6658 228.344 23.7884 228.34 23.9177L228.335 30.8669L228.333 34.0256C228.333 34.653 228.202 35.411 228.437 36.0067C228.977 37.3769 231.31 36.8628 232.429 36.8731C234.711 36.894 236.993 36.8906 239.275 36.8627C241.556 36.8351 243.838 36.7835 246.118 36.7077C247.101 36.6751 248.461 36.8981 248.759 35.6888C248.968 34.8411 248.724 33.7357 248.679 32.8706C248.629 31.8833 248.574 30.8959 248.561 29.9072C248.53 27.5985 248.756 25.3526 249.611 23.1921C249.631 23.1181 249.633 23.0404 249.619 22.9652C249.604 22.8899 249.572 22.819 249.525 22.758C249.479 22.697 249.419 22.6475 249.35 22.6132C249.281 22.579 249.206 22.561 249.129 22.5605C241.872 23.0851 234.604 23.3092 227.325 23.233C227.196 23.2375 227.073 23.292 226.983 23.3851C226.893 23.4781 226.842 23.6025 226.842 23.7319C226.842 23.8613 226.893 23.9857 226.983 24.0787C227.073 24.1718 227.196 24.2264 227.325 24.2308L227.325 24.2309Z" fill="#F1F1F1"/>
<path d="M229.399 24.773C232.513 25.8728 235.549 27.1811 238.487 28.6891C241.122 30.0482 244.572 31.5328 246.386 33.9619C246.766 34.471 247.634 33.974 247.249 33.4582C245.397 30.9778 242.209 29.5182 239.53 28.1084C236.349 26.4423 233.052 25.0061 229.665 23.8108C229.057 23.595 228.796 24.5588 229.399 24.773Z" fill="#F1F1F1"/>
<path d="M248.959 22.996C245.654 24.4061 242.854 27.1228 239.901 29.1358C236.705 31.3148 233.413 33.3426 230.026 35.2193C229.464 35.5324 229.968 36.3946 230.531 36.0809C233.911 34.1977 237.202 32.1699 240.406 29.9975C243.359 27.9848 246.16 25.2673 249.463 23.8576C250.053 23.6059 249.544 22.746 248.959 22.996V22.996Z" fill="#F1F1F1"/>
<path d="M292.992 24.2309C300.267 24.3072 307.535 24.083 314.795 23.5584L314.313 22.9269C313.125 25.9317 313.157 29.0988 313.315 32.2776C313.354 33.074 313.605 34.148 313.443 34.9368C313.239 35.9289 312.347 35.6917 311.459 35.7203C309.504 35.7834 307.549 35.8288 305.593 35.8563C303.746 35.8824 301.899 35.8926 300.052 35.8871C299.182 35.8844 298.313 35.8782 297.444 35.8686C296.423 35.8573 295.263 36.1531 294.999 34.9732C294.83 34.2175 295 33.2235 295.001 32.4463L295.003 29.6034L295.007 23.9177C295.002 23.7884 294.947 23.6658 294.854 23.5759C294.761 23.486 294.636 23.4357 294.507 23.4357C294.377 23.4357 294.252 23.486 294.159 23.5759C294.066 23.6658 294.011 23.7884 294.007 23.9177L294.002 30.8669L294 34.0256C293.999 34.653 293.869 35.411 294.103 36.0067C294.643 37.3769 296.977 36.8628 298.096 36.8731C300.377 36.894 302.659 36.8906 304.941 36.8627C307.223 36.8351 309.504 36.7835 311.785 36.7077C312.768 36.6751 314.127 36.8981 314.425 35.6888C314.634 34.8411 314.391 33.7357 314.346 32.8706C314.295 31.8833 314.241 30.8959 314.227 29.9072C314.196 27.5985 314.423 25.3526 315.277 23.1921C315.297 23.1181 315.3 23.0404 315.285 22.9652C315.271 22.8899 315.239 22.819 315.192 22.758C315.145 22.697 315.085 22.6475 315.017 22.6132C314.948 22.579 314.872 22.561 314.795 22.5605C307.539 23.0851 300.271 23.3092 292.992 23.233C292.863 23.2375 292.74 23.292 292.65 23.3851C292.56 23.4781 292.509 23.6025 292.509 23.7319C292.509 23.8613 292.56 23.9857 292.65 24.0787C292.74 24.1718 292.863 24.2264 292.992 24.2308L292.992 24.2309Z" fill="#F1F1F1"/>
<path d="M295.065 24.773C298.18 25.8728 301.216 27.1811 304.153 28.6891C306.789 30.0482 310.239 31.5328 312.053 33.9619C312.433 34.471 313.301 33.974 312.916 33.4582C311.064 30.9778 307.875 29.5182 305.197 28.1084C302.016 26.4423 298.719 25.0061 295.331 23.8108C294.724 23.595 294.463 24.5588 295.065 24.773V24.773Z" fill="#F1F1F1"/>
<path d="M314.625 22.996C311.321 24.4061 308.521 27.1228 305.568 29.1358C302.371 31.3148 299.08 33.3426 295.693 35.2193C295.131 35.5324 295.635 36.3946 296.198 36.0809C299.577 34.1977 302.869 32.1699 306.073 29.9975C309.025 27.9848 311.826 25.2673 315.13 23.8576C315.72 23.6059 315.211 22.746 314.625 22.996V22.996Z" fill="#F1F1F1"/>
<path d="M292.992 44.1881C300.267 44.2644 307.535 44.0403 314.795 43.5157L314.313 42.8841C313.125 45.889 313.157 49.0561 313.315 52.2349C313.354 53.0313 313.605 54.1053 313.443 54.8941C313.239 55.8861 312.347 55.649 311.459 55.6776C309.504 55.7407 307.549 55.786 305.593 55.8136C303.746 55.8396 301.899 55.8499 300.052 55.8444C299.182 55.8417 298.313 55.8355 297.444 55.8259C296.423 55.8145 295.263 56.1103 294.999 54.9305C294.83 54.1747 295 53.1807 295.001 52.4035L295.003 49.5607L295.007 43.8749C295.002 43.7456 294.947 43.6231 294.854 43.5332C294.761 43.4433 294.636 43.393 294.507 43.393C294.377 43.393 294.252 43.4433 294.159 43.5332C294.066 43.6231 294.011 43.7456 294.007 43.8749L294.002 50.8241L294 53.9829C293.999 54.6103 293.869 55.3683 294.103 55.964C294.643 57.3341 296.977 56.8201 298.096 56.8303C300.377 56.8513 302.659 56.8478 304.941 56.82C307.223 56.7924 309.504 56.7407 311.785 56.6649C312.768 56.6323 314.127 56.8553 314.425 55.6461C314.634 54.7983 314.391 53.693 314.346 52.8279C314.295 51.8406 314.241 50.8531 314.227 49.8645C314.196 47.5558 314.423 45.3099 315.277 43.1494C315.297 43.0753 315.3 42.9977 315.285 42.9224C315.271 42.8472 315.239 42.7763 315.192 42.7153C315.145 42.6543 315.085 42.6048 315.017 42.5705C314.948 42.5363 314.872 42.5183 314.795 42.5178C307.539 43.0423 300.271 43.2665 292.992 43.1902C292.863 43.1947 292.74 43.2493 292.65 43.3423C292.56 43.4354 292.509 43.5598 292.509 43.6892C292.509 43.8186 292.56 43.9429 292.65 44.036C292.74 44.1291 292.863 44.1836 292.992 44.1881H292.992Z" fill="#F1F1F1"/>
<path d="M295.065 44.7303C298.18 45.8301 301.216 47.1384 304.153 48.6464C306.789 50.0055 310.239 51.4901 312.053 53.9192C312.433 54.4282 313.301 53.9313 312.916 53.4155C311.064 50.935 307.875 49.4755 305.197 48.0657C302.016 46.3996 298.719 44.9634 295.331 43.7681C294.724 43.5523 294.463 44.5161 295.065 44.7303V44.7303Z" fill="#F1F1F1"/>
<path d="M314.625 42.9533C311.321 44.3633 308.521 47.0801 305.568 49.0931C302.371 51.2721 299.08 53.2999 295.693 55.1765C295.131 55.4897 295.635 56.3519 296.198 56.0381C299.577 54.155 302.869 52.1272 306.073 49.9547C309.025 47.9421 311.826 45.2246 315.13 43.8149C315.72 43.5632 315.211 42.7033 314.625 42.9533V42.9533Z" fill="#F1F1F1"/>
<path d="M229.216 43.4359C235.957 43.5382 242.697 43.5114 249.438 43.3554C250.08 43.3406 250.082 42.3427 249.438 42.3576C242.698 42.5136 235.957 42.5404 229.216 42.438C229.086 42.4425 228.963 42.4971 228.873 42.5901C228.783 42.6832 228.733 42.8076 228.733 42.937C228.733 43.0664 228.783 43.1907 228.873 43.2838C228.963 43.3769 229.086 43.4314 229.216 43.4359V43.4359Z" fill="#F1F1F1"/>
<path d="M229.783 47.9599C236.712 48.0703 243.642 48.0406 250.571 47.8708C251.214 47.8551 251.216 46.8572 250.571 46.873C243.643 47.0427 236.713 47.0724 229.783 46.9621C229.139 46.9518 229.139 47.9497 229.783 47.9599Z" fill="#F1F1F1"/>
<path d="M229.024 52.8449L248.679 51.9341C249.32 51.9044 249.324 50.9063 248.679 50.9362L229.024 51.847C228.383 51.8767 228.38 52.8747 229.024 52.8449Z" fill="#F1F1F1"/>
<path d="M259.64 38.7474H278.349C278.479 38.7429 278.601 38.6884 278.692 38.5953C278.782 38.5022 278.832 38.3779 278.832 38.2484C278.832 38.119 278.782 37.9947 278.692 37.9016C278.601 37.8085 278.479 37.754 278.349 37.7495H259.64C259.511 37.754 259.388 37.8085 259.298 37.9016C259.208 37.9947 259.157 38.119 259.157 38.2484C259.157 38.3779 259.208 38.5022 259.298 38.5953C259.388 38.6884 259.511 38.7429 259.64 38.7474V38.7474Z" fill="#F1F1F1"/>
<path d="M277.529 33.0424L280.452 35.7047C280.787 36.0092 281.706 36.6378 281.914 37.0359C282.343 37.859 281.882 37.6712 281.146 37.9564C279.338 38.6744 277.672 39.7068 276.225 41.0057C275.741 41.4311 276.451 42.1346 276.932 41.7113C278.251 40.5279 279.767 39.5829 281.412 38.9186C282.002 38.6858 283.12 38.5495 283.4 37.8486C283.743 36.9908 282.651 36.3578 282.134 35.8866L278.237 32.3368C277.762 31.9046 277.053 32.6084 277.529 33.0424V33.0424Z" fill="#F1F1F1"/>
<path d="M232.126 71.9956H245.894C246.834 66.5757 246.834 61.035 245.894 55.6151H232.126C233.677 60.9656 233.677 66.6451 232.126 71.9956Z" fill="#009688"/>
<path d="M174.793 59.6887H188.561C189.5 54.2688 189.5 48.7281 188.561 43.3082H174.793C176.344 48.6587 176.344 54.3382 174.793 59.6887V59.6887Z" fill="#009688"/>
<path d="M261.793 23.7657H275.561C276.5 18.3458 276.5 12.8052 275.561 7.38525H261.793C263.344 12.7357 263.344 18.4152 261.793 23.7657Z" fill="#009688"/>
</svg>
